<svg width="44" height="44" viewBox="0 0 44 44" fill="none" xmlns="http://www.w3.org/2000/svg">
<path fill-rule="evenodd" clip-rule="evenodd" d="M22 7.33332C13.8998 7.33332 7.33334 13.8998 7.33334 22C7.33334 30.1002 13.8998 36.6667 22 36.6667C30.1003 36.6667 36.6667 30.1002 36.6667 22C36.6667 13.8998 30.1002 7.33332 22 7.33332ZM3.66667 22C3.66667 11.8748 11.8748 3.66666 22 3.66666C32.1253 3.66666 40.3333 11.8748 40.3333 22C40.3333 32.1253 32.1253 40.3333 22 40.3333C11.8748 40.3333 3.66667 32.1253 3.66667 22ZM22 12.8333C23.0125 12.8333 23.8333 13.6541 23.8333 14.6667V20.1667H29.3333C30.3459 20.1667 31.1667 20.9875 31.1667 22C31.1667 23.0125 30.3459 23.8333 29.3333 23.8333H23.8333V29.3333C23.8333 30.3458 23.0125 31.1667 22 31.1667C20.9875 31.1667 20.1667 30.3458 20.1667 29.3333V23.8333H14.6667C13.6541 23.8333 12.8333 23.0125 12.8333 22C12.8333 20.9875 13.6541 20.1667 14.6667 20.1667H20.1667V14.6667C20.1667 13.6541 20.9875 12.8333 22 12.8333Z" fill="#064151"/>
</svg>
