<svg width="60" height="60" viewBox="0 0 60 60" fill="none" xmlns="http://www.w3.org/2000/svg">
<path fill-rule="evenodd" clip-rule="evenodd" d="M30 10C18.9543 10 10 18.9543 10 30C10 41.0458 18.9543 50 30 50C41.0458 50 50 41.0458 50 30C50 18.9543 41.0458 10 30 10ZM5 30C5 16.1929 16.1929 5 30 5C43.8072 5 55 16.1929 55 30C55 43.8072 43.8072 55 30 55C16.1929 55 5 43.8072 5 30ZM20.7322 20.7322C21.7085 19.7559 23.2915 19.7559 24.2678 20.7322L30 26.4645L35.7322 20.7322C36.7085 19.7559 38.2915 19.7559 39.2678 20.7322C40.2441 21.7085 40.2441 23.2915 39.2678 24.2678L33.5355 30L39.2678 35.7322C40.2441 36.7085 40.2441 38.2915 39.2678 39.2678C38.2915 40.2441 36.7085 40.2441 35.7322 39.2678L30 33.5355L24.2678 39.2678C23.2915 40.2441 21.7085 40.2441 20.7322 39.2678C19.7559 38.2915 19.7559 36.7085 20.7322 35.7322L26.4645 30L20.7322 24.2678C19.7559 23.2915 19.7559 21.7085 20.7322 20.7322Z" fill="#064151"/>
</svg>
