<svg width="48" height="48" viewBox="0 0 48 48" fill="none" xmlns="http://www.w3.org/2000/svg">
<g clip-path="url(#clip0_146_806)">
<path d="M40.3188 28.1986H40.2844C41.016 27.2395 41.6585 25.952 41.6331 24.4035C41.5988 22.3106 40.3477 20.263 37.9146 18.3175C38.2188 17.4041 38.2834 16.5035 38.1048 15.6211C37.3974 12.1256 33.6043 10.7296 30.1235 9.9535C30.2472 9.54255 30.3145 9.10733 30.3145 8.65657C30.3145 6.95076 29.3622 5.46328 27.9616 4.69715C29.3551 1.86785 31.2131 1.55507 31.9605 1.55507C32.9127 1.55507 33.5114 1.75889 33.8577 1.9427C34.1272 2.08566 34.4537 2.06265 34.6965 1.87811C35.1487 1.53444 35.0904 0.839739 34.589 0.572992C34.0313 0.276077 33.1837 0 31.9605 0C30.4698 0 29.0716 0.685891 27.9173 1.98344C27.5286 2.42031 26.9669 3.15669 26.4763 4.19714C26.2572 4.16428 26.0329 4.14686 25.8047 4.14686C24.1136 4.14686 22.6376 5.08312 21.8659 6.46412C21.5833 6.15197 21.2713 5.74361 21.0514 5.28144C20.9589 5.08706 20.79 4.93974 20.5848 4.87453C20.3796 4.80942 20.1565 4.83213 19.9689 4.93746C17.6444 6.24144 15.9471 7.97866 14.9242 10.1009C14.0494 11.9159 13.8877 13.588 13.8847 14.5603C13.819 14.5859 13.7539 14.6114 13.693 14.6375C11.6804 15.5 10.5199 17.1421 10.3367 19.386C10.2635 20.283 10.3647 21.1015 10.4729 21.6632C8.87126 22.2371 7.75741 23.3343 7.35579 24.7721C7.03876 25.9071 7.20235 27.1385 7.76415 28.1987H7.14378C6.9073 28.1987 6.68368 28.3064 6.53606 28.4912C6.38853 28.6761 6.33317 28.9179 6.38553 29.1486L10.2389 46.1036C10.4927 47.2202 11.4696 48 12.6146 48H34.8477C35.9926 48 36.9696 47.2202 37.2234 46.1036L41.0768 29.1486C41.1292 28.9179 41.0738 28.6761 40.9263 28.4912C40.779 28.3063 40.5553 28.1986 40.3188 28.1986ZM25.8047 5.70193C27.4339 5.70193 28.7594 7.02737 28.7594 8.65657C28.7594 10.2858 27.4339 11.6112 25.8047 11.6112C24.1756 11.6112 22.8501 10.2858 22.8501 8.65657C22.8501 7.02737 24.1757 5.70193 25.8047 5.70193ZM12.6148 46.4448C12.2007 46.4448 11.8474 46.1627 11.7555 45.7589L8.11798 29.7537H10.6345L13.4142 46.0619C13.4368 46.1946 13.4687 46.3221 13.5073 46.4448H12.6148ZM15.394 46.4448C15.2528 46.4448 15.019 46.2209 14.9473 45.8006L12.2121 29.7537H14.7434L16.5918 46.019C16.6087 46.1673 16.6333 46.3095 16.6652 46.4448H15.394ZM18.3137 46.4448C18.2595 46.3568 18.1735 46.1648 18.137 45.8434L16.3085 29.7537H18.8498L19.7716 45.9753C19.781 46.142 19.7955 46.2984 19.8148 46.4448H18.3137ZM22.9538 46.4448H21.3906C21.364 46.3116 21.3378 46.1277 21.3241 45.8872L20.4074 29.7537H22.8996C22.9005 29.7537 22.9014 29.7539 22.9024 29.7539C22.9037 29.7539 22.905 29.7537 22.9063 29.7537H22.9538V46.4448ZM26.1386 45.8872C26.1249 46.1277 26.0987 46.3117 26.072 46.4448H24.5089V29.7537H27.0552L26.1386 45.8872ZM29.1491 46.4448H27.6478C27.6672 46.2985 27.6816 46.1421 27.6911 45.9753L28.6128 29.7537H31.1542L29.3257 45.8434C29.2893 46.1648 29.2033 46.3568 29.1491 46.4448ZM32.0688 46.4448H30.7975C30.8294 46.3095 30.8541 46.1673 30.871 46.019L32.7192 29.7537H35.2506L32.5153 45.8006C32.4438 46.2209 32.21 46.4448 32.0688 46.4448ZM35.7071 45.7589C35.6154 46.1628 35.262 46.4448 34.8478 46.4448H33.9552C33.9939 46.3221 34.0257 46.1946 34.0483 46.0619L36.8281 29.7537H38.4761C38.4767 29.7537 38.4773 29.7538 38.4781 29.7538C38.4789 29.7538 38.4796 29.7537 38.4805 29.7537H39.3448L35.7071 45.7589ZM38.1829 28.1986H26.2607C28.0089 27.2852 30.2734 26.0052 32.4073 24.5081C32.7588 24.2615 32.8438 23.7766 32.5972 23.4251C32.3506 23.0735 31.8657 22.9885 31.5141 23.2352C27.8104 25.8337 23.5695 27.8173 22.7343 28.1986H9.65563C8.88297 27.3644 8.56822 26.2127 8.85374 25.1903C9.17698 24.0328 10.221 23.2223 11.7933 22.9078C13.2702 22.6124 17.1754 21.7902 21.5316 20.5376C21.9442 20.4189 22.1827 19.9882 22.064 19.5755C21.9453 19.1628 21.5149 18.9242 21.1018 19.0431C17.2189 20.1596 13.6997 20.9296 11.9796 21.2832C11.7419 20.0034 11.5849 17.2328 14.3057 16.0667C15.3558 15.6167 17.4839 15.2291 19.7369 14.8189L20.4895 14.6815C20.9119 14.604 21.1915 14.1988 21.1139 13.7765C21.0364 13.354 20.6312 13.0745 20.2089 13.1521L19.4583 13.2891C18.0035 13.554 16.5991 13.8099 15.4533 14.0901C15.559 12.2782 16.3265 9.0783 20.07 6.68857C20.3509 7.10823 20.6529 7.45388 20.8929 7.70134C21.0604 7.87406 21.2034 8.00935 21.3283 8.118C21.3072 8.29486 21.295 8.47431 21.295 8.65678C21.295 11.1434 23.3181 13.1665 25.8047 13.1665C27.266 13.1665 28.5667 12.4673 29.3913 11.3865C30.9248 11.7127 32.1937 12.09 33.2185 12.5307C33.4129 12.8248 33.3862 13.0362 33.3324 13.2051C33.1393 13.8102 31.9347 15.4742 24.9381 17.8486C24.5315 17.9866 24.3136 18.4281 24.4516 18.8347C24.5615 19.1586 24.8638 19.3626 25.1879 19.3626C25.2707 19.3626 25.355 19.3492 25.4379 19.3212C27.9457 18.4701 29.9801 17.6202 31.4847 16.7951C33.3888 15.7508 34.4779 14.7311 34.814 13.6778C34.8388 13.6001 34.8586 13.5226 34.8752 13.4449C35.8311 14.1392 36.3841 14.9578 36.5809 15.9298C36.8669 17.3429 36.2246 18.903 34.6719 20.567C34.3789 20.8809 34.3959 21.3729 34.7099 21.6659C34.8598 21.8057 35.0502 21.875 35.2402 21.875C35.4482 21.875 35.6557 21.7921 35.8088 21.6279C36.3896 21.0056 36.8646 20.3861 37.2346 19.771C39.0966 21.3339 40.0535 22.8999 40.0784 24.4293C40.1061 26.1261 38.9856 27.4619 38.1829 28.1986Z" fill="url(#paint0_linear_146_806)"/>
</g>
<defs>
<linearGradient id="paint0_linear_146_806" x1="12.7199" y1="6.24" x2="35.9999" y2="50.4" gradientUnits="userSpaceOnUse">
<stop offset="0.1" stop-color="#3594AD"/>
<stop offset="0.565" stop-color="#8BB7A0"/>
<stop offset="1" stop-color="#FBE58E"/>
</linearGradient>
<clipPath id="clip0_146_806">
<rect width="48" height="48" fill="white"/>
</clipPath>
</defs>
</svg>
