<svg width="48" height="48" viewBox="0 0 48 48" fill="none" xmlns="http://www.w3.org/2000/svg">
<g clip-path="url(#clip0_146_820)">
<path d="M39.7582 32.4492C38.9293 32.4492 38.2549 33.1236 38.2549 33.9525C38.2549 34.7813 38.9293 35.4557 39.7582 35.4557C40.587 35.4557 41.2614 34.7813 41.2614 33.9525C41.2614 33.1236 40.587 32.4492 39.7582 32.4492Z" fill="url(#paint0_linear_146_820)"/>
<path d="M9.90064 32.4492C9.07179 32.4492 8.3974 33.1236 8.3974 33.9525C8.3974 34.7813 9.07179 35.4557 9.90064 35.4557C10.7295 35.4557 11.4039 34.7813 11.4039 33.9525C11.4039 33.1236 10.7295 32.4492 9.90064 32.4492Z" fill="url(#paint1_linear_146_820)"/>
<path d="M46.0607 22.6327L40.3414 20.0908L36.155 11.0201C35.6231 9.86762 34.4592 9.12305 33.1899 9.12305H2.43629C1.09291 9.12305 0 10.216 0 11.5593V32.2937C0 33.6371 1.09291 34.73 2.43629 34.73H5.03825C5.41219 37.0771 7.44997 38.8769 9.90067 38.8769C12.3514 38.8769 14.3891 37.0771 14.7631 34.73H34.8957C35.2696 37.0771 37.3074 38.8769 39.7581 38.8769C42.2088 38.8769 44.2466 37.0771 44.6205 34.73H45.5637C46.9071 34.73 48 33.6371 48 32.2937V25.6169C48.0001 24.3277 47.2388 23.1563 46.0607 22.6327ZM36.1984 14.825L38.5429 19.9049H31.4126V14.825H36.1984ZM9.90067 37.3218C8.04287 37.3218 6.53133 35.8103 6.53133 33.9525C6.53133 32.0946 8.04287 30.5831 9.90067 30.5831C11.7585 30.5831 13.27 32.0946 13.27 33.9525C13.27 35.8103 11.7585 37.3218 9.90067 37.3218ZM39.7582 37.3218C37.9004 37.3218 36.3888 35.8104 36.3888 33.9525C36.3888 32.0946 37.9004 30.5831 39.7582 30.5831C41.616 30.5831 43.1275 32.0946 43.1275 33.9525C43.1275 35.8103 41.616 37.3218 39.7582 37.3218ZM46.445 29.8574H45.5638C45.1344 29.8574 44.7863 30.2055 44.7863 30.635C44.7863 31.0645 45.1344 31.4125 45.5638 31.4125H46.445V32.2937C46.445 32.7796 46.0497 33.1749 45.5638 33.1749H44.6206C44.2467 30.8278 42.2089 29.0281 39.7582 29.0281C37.3075 29.0281 35.2697 30.8278 34.8958 33.1749H14.7631C14.3891 30.8278 12.3514 29.0281 9.90067 29.0281C7.44997 29.0281 5.41219 30.8278 5.03825 33.1749H2.43629C1.95038 33.1749 1.55508 32.7796 1.55508 32.2937V31.4125H4.09504C4.52445 31.4125 4.87258 31.0645 4.87258 30.635C4.87258 30.2055 4.52445 29.8574 4.09504 29.8574H1.55508V11.5593C1.55508 11.0734 1.95038 10.6781 2.43629 10.6781H33.1899C33.8548 10.6781 34.4645 11.0682 34.7431 11.6718L35.4807 13.2699H28.1469C27.2608 13.2699 26.54 13.9908 26.54 14.8768V18.1943C26.54 19.995 28.005 21.46 29.8057 21.46H39.5932L44.4218 23.606L44.2994 23.6802C43.5766 24.1191 43.1275 24.9171 43.1275 25.7627V27.3175C43.1275 27.747 43.4757 28.095 43.9051 28.095H46.445V29.8574ZM29.8575 14.825V19.9049H29.8057C28.8625 19.9049 28.0951 19.1375 28.0951 18.1943V14.8768C28.0951 14.8483 28.1183 14.825 28.1469 14.825H29.8575ZM46.445 26.5399H44.6826V25.7628C44.6826 25.457 44.8451 25.1684 45.1064 25.0095L45.9996 24.4672C46.2803 24.7764 46.445 25.1837 46.445 25.6168V26.5399Z" fill="url(#paint2_linear_146_820)"/>
<path d="M33.9526 29.8574H15.7063C15.2769 29.8574 14.9288 30.2054 14.9288 30.635C14.9288 31.0645 15.2769 31.4125 15.7063 31.4125H33.9526C34.382 31.4125 34.7301 31.0645 34.7301 30.635C34.7301 30.2054 34.382 29.8574 33.9526 29.8574Z" fill="url(#paint3_linear_146_820)"/>
<path d="M12.3888 12.4404C11.9594 12.4404 11.6113 12.7885 11.6113 13.218V16.5873H10.6782V13.218C10.6782 12.7885 10.3301 12.4404 9.90068 12.4404C9.47127 12.4404 9.12314 12.7885 9.12314 13.218V16.5873H8.19009V13.218C8.19009 12.7885 7.84196 12.4404 7.41255 12.4404C6.98314 12.4404 6.63501 12.7885 6.63501 13.218V18.1942C6.63501 19.5376 7.72792 20.6305 9.0713 20.6305H9.12314V27.3174C9.12314 27.7469 9.47127 28.0949 9.90068 28.0949C10.3301 28.0949 10.6782 27.7469 10.6782 27.3174V20.6305H10.7301C12.0734 20.6305 13.1663 19.5376 13.1663 18.1942V13.218C13.1663 12.7885 12.8182 12.4404 12.3888 12.4404ZM11.6113 18.1942C11.6113 18.6801 11.216 19.0754 10.7301 19.0754H9.0713C8.58539 19.0754 8.19009 18.6801 8.19009 18.1942V18.1424H11.6113V18.1942Z" fill="url(#paint4_linear_146_820)"/>
<path d="M15.7063 28.0949C16.1357 28.0949 16.4839 27.7469 16.4839 27.3174V23.948H18.0447C18.518 23.948 18.9649 23.7409 19.2709 23.3798C19.5768 23.0187 19.7075 22.5439 19.6298 22.0769L18.2567 13.8387C18.1218 13.0285 17.4276 12.4404 16.602 12.4404C15.6794 12.4404 14.9288 13.191 14.9288 14.1137V27.3174C14.9288 27.7469 15.2769 28.0949 15.7063 28.0949ZM16.4839 14.1137C16.4839 14.0486 16.5368 13.9955 16.6063 13.9955C16.6643 13.9955 16.7134 14.037 16.7229 14.0943L18.0959 22.3326C18.097 22.3391 18.0999 22.3563 18.0844 22.3746C18.0688 22.3929 18.0514 22.3929 18.0447 22.3929H16.4839V14.1137Z" fill="url(#paint5_linear_146_820)"/>
</g>
<defs>
<linearGradient id="paint0_linear_146_820" x1="38.7966" y1="32.8401" x2="39.9871" y2="35.9136" gradientUnits="userSpaceOnUse">
<stop offset="0.1" stop-color="#3594AD"/>
<stop offset="0.565" stop-color="#8BB7A0"/>
<stop offset="1" stop-color="#FBE58E"/>
</linearGradient>
<linearGradient id="paint1_linear_146_820" x1="8.93904" y1="32.8401" x2="10.1295" y2="35.9136" gradientUnits="userSpaceOnUse">
<stop offset="0.1" stop-color="#3594AD"/>
<stop offset="0.565" stop-color="#8BB7A0"/>
<stop offset="1" stop-color="#FBE58E"/>
</linearGradient>
<linearGradient id="paint2_linear_146_820" x1="8.64748" y1="12.991" x2="16.5886" y2="46.0654" gradientUnits="userSpaceOnUse">
<stop offset="0.1" stop-color="#3594AD"/>
<stop offset="0.565" stop-color="#8BB7A0"/>
<stop offset="1" stop-color="#FBE58E"/>
</linearGradient>
<linearGradient id="paint3_linear_146_820" x1="18.4961" y1="30.0596" x2="18.5517" y2="31.8862" gradientUnits="userSpaceOnUse">
<stop offset="0.1" stop-color="#3594AD"/>
<stop offset="0.565" stop-color="#8BB7A0"/>
<stop offset="1" stop-color="#FBE58E"/>
</linearGradient>
<linearGradient id="paint4_linear_146_820" x1="7.81167" y1="14.4755" x2="16.9886" y2="24.3604" gradientUnits="userSpaceOnUse">
<stop offset="0.1" stop-color="#3594AD"/>
<stop offset="0.565" stop-color="#8BB7A0"/>
<stop offset="1" stop-color="#FBE58E"/>
</linearGradient>
<linearGradient id="paint5_linear_146_820" x1="15.7796" y1="14.4755" x2="24.702" y2="21.4252" gradientUnits="userSpaceOnUse">
<stop offset="0.1" stop-color="#3594AD"/>
<stop offset="0.565" stop-color="#8BB7A0"/>
<stop offset="1" stop-color="#FBE58E"/>
</linearGradient>
<clipPath id="clip0_146_820">
<rect width="48" height="48" fill="white"/>
</clipPath>
</defs>
</svg>
