<svg width="36" height="36" viewBox="0 0 36 36" fill="none" xmlns="http://www.w3.org/2000/svg">
<path fill-rule="evenodd" clip-rule="evenodd" d="M18 6C11.3726 6 6 11.3726 6 18C6 24.6275 11.3726 30 18 30C24.6275 30 30 24.6275 30 18C30 11.3726 24.6275 6 18 6ZM3 18C3 9.71573 9.71573 3 18 3C26.2843 3 33 9.71574 33 18C33 26.2843 26.2843 33 18 33C9.71574 33 3 26.2843 3 18ZM13.5923 14.2511C14.0918 12.3105 15.8517 10.875 17.9505 10.875C20.4358 10.875 22.4505 12.8897 22.4505 15.375C22.4505 16.7721 21.7687 17.699 21.0547 18.3881C20.7654 18.6673 20.4361 18.9403 20.14 19.1857C20.0963 19.2219 20.0533 19.2575 20.0113 19.2925C19.6657 19.58 19.3349 19.8619 19.0112 20.1857C18.4254 20.7714 17.4756 20.7714 16.8898 20.1857C16.3041 19.5999 16.3041 18.6501 16.8898 18.0643C17.3161 17.6381 17.7353 17.2834 18.0928 16.9861C18.1402 16.9466 18.1859 16.9087 18.2301 16.872C18.537 16.6173 18.7698 16.424 18.9713 16.2295C19.3823 15.8329 19.4505 15.6348 19.4505 15.375C19.4505 14.5466 18.779 13.875 17.9505 13.875C17.2536 13.875 16.6642 14.3516 16.4977 14.9989C16.2912 15.8011 15.4734 16.2841 14.6711 16.0777C13.8689 15.8712 13.3859 15.0534 13.5923 14.2511ZM17.9655 25.125H17.9505C17.1221 25.125 16.4505 24.4534 16.4505 23.625C16.4505 22.7966 17.1221 22.125 17.9505 22.125H17.9655C18.7939 22.125 19.4655 22.7966 19.4655 23.625C19.4655 24.4534 18.7939 25.125 17.9655 25.125Z" fill="#EE96A6"/>
</svg>
