<svg width="60" height="60" viewBox="0 0 60 60" fill="none" xmlns="http://www.w3.org/2000/svg">
<path fill-rule="evenodd" clip-rule="evenodd" d="M30 10C18.9543 10 10 18.9543 10 30C10 41.0458 18.9543 50 30 50C41.0458 50 50 41.0458 50 30C50 18.9543 41.0458 10 30 10ZM5 30C5 16.1929 16.1929 5 30 5C43.8072 5 55 16.1929 55 30C55 43.8072 43.8072 55 30 55C16.1929 55 5 43.8072 5 30ZM29.2678 20.7322C30.2441 21.7085 30.2441 23.2915 29.2678 24.2678L26.0355 27.5H40C41.3807 27.5 42.5 28.6193 42.5 30C42.5 31.3807 41.3807 32.5 40 32.5H26.0355L29.2678 35.7322C30.2441 36.7085 30.2441 38.2915 29.2678 39.2678C28.2915 40.2441 26.7085 40.2441 25.7322 39.2678L18.2322 31.7678C17.2559 30.7915 17.2559 29.2085 18.2322 28.2322L25.7322 20.7322C26.7085 19.7559 28.2915 19.7559 29.2678 20.7322Z" fill="#064151"/>
</svg>
