<svg width="32" height="32" viewBox="0 0 32 32" fill="none" xmlns="http://www.w3.org/2000/svg">
<path d="M32 12.959V7.8445C32 7.48248 31.7054 7.18791 31.3434 7.18791H30.8942V5.49461C30.8942 4.59902 30.1656 3.87042 29.27 3.87042H23.7063V3.83586C23.7063 2.94027 22.9777 2.21167 22.0821 2.21167H9.91793C9.02234 2.21167 8.29374 2.94027 8.29374 3.83586V3.87042H2.73002C1.83444 3.87042 1.10583 4.59902 1.10583 5.49461V7.18791H0.656587C0.294566 7.18791 0 7.48248 0 7.8445V12.959C0 13.8143 0.440259 14.5685 1.10583 15.0078V28.7516H0.518359C0.232086 28.7516 0 28.9837 0 29.27C0 29.5563 0.232086 29.7883 0.518359 29.7883H31.4816C31.7679 29.7883 32 29.5563 32 29.27C32 28.9837 31.7679 28.7516 31.4816 28.7516H30.8942V15.0078C31.5597 14.5685 32 13.8143 32 12.959ZM9.33045 3.83586C9.33045 3.51192 9.59399 3.24839 9.91793 3.24839H22.0821C22.406 3.24839 22.6695 3.51192 22.6695 3.83586V4.38608C22.6695 4.38698 22.6694 4.38781 22.6694 4.38878C22.6694 4.38919 22.6695 4.38967 22.6695 4.39016C22.6687 4.71341 22.4055 4.97625 22.0821 4.97625H9.91793C9.59399 4.97625 9.33045 4.71272 9.33045 4.38878V3.83586ZM2.14255 5.49461C2.14255 5.17067 2.40608 4.90713 2.73002 4.90713H8.37902C8.5959 5.54921 9.20356 6.01297 9.91793 6.01297H22.0821C22.7964 6.01297 23.4041 5.54921 23.621 4.90713H29.27C29.5939 4.90713 29.8575 5.17067 29.8575 5.49461V7.18791H2.14255V5.49461ZM27.0929 8.22463V12.959C27.0929 13.7402 26.4573 14.3758 25.676 14.3758C24.8948 14.3758 24.2592 13.7402 24.2592 12.959V8.22463H27.0929ZM23.2225 8.22463V12.959C23.2225 13.7402 22.5869 14.3758 21.8056 14.3758C21.0243 14.3758 20.3888 13.7402 20.3888 12.959V8.22463H23.2225ZM19.3521 8.22463V12.959C19.3521 13.7402 18.7165 14.3758 17.9352 14.3758C17.1539 14.3758 16.5184 13.7402 16.5184 12.959V8.22463H19.3521ZM15.4816 8.22463V12.959C15.4816 13.7402 14.8461 14.3758 14.0648 14.3758C13.2835 14.3758 12.6479 13.7402 12.6479 12.959V8.22463H15.4816ZM11.6112 8.22463V12.959C11.6112 13.7402 10.9757 14.3758 10.1944 14.3758C9.41311 14.3758 8.77754 13.7402 8.77754 12.959V8.22463H11.6112ZM7.74082 8.22463V12.959C7.74082 13.7402 7.10524 14.3758 6.32397 14.3758C5.5427 14.3758 4.90713 13.7402 4.90713 12.959V8.22463H7.74082ZM1.03672 12.959V8.22463H3.87041V12.959C3.87041 13.7402 3.23483 14.3758 2.45356 14.3758C1.67229 14.3758 1.03672 13.7402 1.03672 12.959ZM9.95248 28.7516H4.35421V27.5767H9.95248V28.7516ZM9.95248 26.54H4.35421V17.6242H9.95248V26.54ZM29.8575 28.7516H10.9892V17.1058C10.9892 16.8196 10.7571 16.5875 10.4708 16.5875H3.83585C3.54958 16.5875 3.31749 16.8196 3.31749 17.1058V28.7516H2.14255V15.3921C2.24449 15.4051 2.34816 15.4125 2.45356 15.4125C3.23926 15.4125 3.93939 15.0408 4.38877 14.4646C4.83815 15.0408 5.53828 15.4125 6.32397 15.4125C7.10967 15.4125 7.8098 15.0408 8.25918 14.4646C8.70856 15.0408 9.40869 15.4125 10.1944 15.4125C10.9801 15.4125 11.6802 15.0408 12.1296 14.4646C12.579 15.0408 13.2791 15.4125 14.0648 15.4125C14.8505 15.4125 15.5506 15.0408 16 14.4646C16.4494 15.0408 17.1495 15.4125 17.9352 15.4125C18.7209 15.4125 19.421 15.0408 19.8704 14.4646C20.3198 15.0408 21.0199 15.4125 21.8056 15.4125C22.5913 15.4125 23.2914 15.0408 23.7408 14.4646C24.1902 15.0408 24.8903 15.4125 25.676 15.4125C26.4617 15.4125 27.1618 15.0408 27.6112 14.4646C28.0606 15.0408 28.7607 15.4125 29.5464 15.4125C29.6518 15.4125 29.7555 15.4051 29.8575 15.3921V28.7516ZM29.5464 14.3758C28.7652 14.3758 28.1296 13.7402 28.1296 12.959V8.22463H30.9633V12.959C30.9633 13.7402 30.3277 14.3758 29.5464 14.3758Z" fill="#EE96A6"/>
<path d="M28.1642 16.5874H12.6825C12.3963 16.5874 12.1642 16.8195 12.1642 17.1058V27.0582C12.1642 27.3445 12.3963 27.5766 12.6825 27.5766H28.1642C28.4505 27.5766 28.6825 27.3445 28.6825 27.0582V17.1058C28.6825 16.8195 28.4505 16.5874 28.1642 16.5874ZM27.6458 26.5399H24.2592V24.812H25.9525C26.2388 24.812 26.4709 24.5799 26.4709 24.2937C26.4709 24.0074 26.2388 23.7753 25.9525 23.7753H21.5292C21.2429 23.7753 21.0108 24.0074 21.0108 24.2937C21.0108 24.5799 21.2429 24.812 21.5292 24.812H23.2225V26.5399H17.6242V24.812H19.3175C19.6038 24.812 19.8359 24.5799 19.8359 24.2937C19.8359 24.0074 19.6038 23.7753 19.3175 23.7753H14.8942C14.6079 23.7753 14.3758 24.0074 14.3758 24.2937C14.3758 24.5799 14.6079 24.812 14.8942 24.812H16.5875V26.5399H13.2009V17.6241H16.5875V18.309C15.6366 18.5422 14.9288 19.4014 14.9288 20.4233C14.9288 20.7095 15.1608 20.9416 15.4471 20.9416H16.5875V20.9762C16.5875 21.2624 16.8196 21.4945 17.1059 21.4945C17.3921 21.4945 17.6242 21.2624 17.6242 20.9762V20.9416H18.7646C19.0509 20.9416 19.283 20.7095 19.283 20.4233C19.283 19.4014 18.5752 18.5422 17.6242 18.309V17.6241H23.2225V18.309C22.2716 18.5422 21.5638 19.4014 21.5638 20.4233C21.5638 20.7095 21.7958 20.9416 22.0821 20.9416H23.2225V20.9762C23.2225 21.2624 23.4546 21.4945 23.7409 21.4945C24.0271 21.4945 24.2592 21.2624 24.2592 20.9762V20.9416H25.3996C25.6859 20.9416 25.918 20.7095 25.918 20.4233C25.918 19.4014 25.2102 18.5422 24.2592 18.309V17.6241H27.6458V26.5399ZM17.1059 19.2829C17.5482 19.2829 17.9324 19.536 18.1215 19.9049H16.0902C16.2793 19.536 16.6635 19.2829 17.1059 19.2829ZM23.7409 19.2829C24.1832 19.2829 24.5674 19.536 24.7565 19.9049H22.7252C22.9142 19.536 23.2985 19.2829 23.7409 19.2829Z" fill="#EE96A6"/>
<path d="M8.81206 23.7063C9.09833 23.7063 9.33042 23.4742 9.33042 23.1879V22.0821C9.33042 21.7958 9.09833 21.5637 8.81206 21.5637C8.52579 21.5637 8.2937 21.7958 8.2937 22.0821V23.1879C8.2937 23.4742 8.52579 23.7063 8.81206 23.7063Z" fill="#EE96A6"/>
</svg>
