<svg width="32" height="32" viewBox="0 0 32 32" fill="none" xmlns="http://www.w3.org/2000/svg">
<g clip-path="url(#clip0_147_323)">
<path d="M17.3666 22.6666H4.94263L12.8933 14.7159L16 17.1066L19.1066 14.7146L21.244 16.8519C21.6709 16.6257 22.1194 16.4426 22.5826 16.3053L20.172 13.8946L28 7.86659V16.8266C28.4738 17.0622 28.9209 17.3483 29.3333 17.6799V7.33325C29.3319 6.80325 29.1207 6.29536 28.746 5.92059C28.3712 5.54583 27.8633 5.33466 27.3333 5.33325H4.66663C4.13663 5.33466 3.62874 5.54583 3.25397 5.92059C2.8792 6.29536 2.66803 6.80325 2.66663 7.33325V21.9999C2.66663 22.5304 2.87734 23.0391 3.25241 23.4141C3.62749 23.7892 4.13619 23.9999 4.66663 23.9999H17.3666C17.3466 23.7799 17.3333 23.5586 17.3333 23.3333C17.3333 23.1079 17.3466 22.8866 17.3666 22.6666ZM3.99996 21.7239V7.86792L11.828 13.8946L3.99996 21.7239ZM27.3333 6.66659C27.3453 6.66659 27.3546 6.67325 27.3666 6.67325L16 15.4266L4.63329 6.67325C4.64529 6.67325 4.65463 6.66659 4.66663 6.66659H27.3333ZM24.6666 17.3333C23.0759 17.335 21.5508 17.9677 20.4259 19.0926C19.3011 20.2174 18.6684 21.7425 18.6666 23.3333C18.6761 23.5566 18.6984 23.7791 18.7333 23.9999C18.8939 25.4627 19.5876 26.8152 20.6821 27.799C21.7766 28.7827 23.195 29.3289 24.6666 29.3333H25.3333V27.9999H24.6666C23.5473 27.9968 22.4665 27.5909 21.6219 26.8564C20.7772 26.1219 20.2252 25.108 20.0666 23.9999C20.0283 23.7796 20.006 23.5568 20 23.3333C19.9993 22.4144 20.2701 21.5159 20.7783 20.7505C21.2865 19.985 22.0095 19.3867 22.8565 19.0306C23.7035 18.6746 24.6368 18.5766 25.5393 18.749C26.4418 18.9215 27.2732 19.3566 27.9293 19.9999H26.6666V20.6839C26.0929 20.2429 25.3902 20.0026 24.6666 19.9999C24.1202 19.9984 23.5819 20.1312 23.0989 20.3866C22.6159 20.642 22.2031 21.0122 21.8968 21.4647C21.5905 21.9172 21.4001 22.438 21.3425 22.9813C21.2848 23.5246 21.3615 24.0738 21.566 24.5805C21.7704 25.0872 22.0963 25.5359 22.5149 25.887C22.9335 26.2382 23.432 26.481 23.9665 26.5942C24.501 26.7074 25.0552 26.6875 25.5802 26.5362C26.1052 26.3849 26.585 26.1069 26.9773 25.7266C27.207 26.0946 27.5503 26.3778 27.9553 26.5333C28.3602 26.6888 28.8049 26.7081 29.2218 26.5883C29.6388 26.4685 30.0053 26.2161 30.266 25.8694C30.5267 25.5226 30.6673 25.1004 30.6666 24.6666V23.3333C30.6476 21.7479 30.0093 20.2328 28.8882 19.1117C27.7671 17.9905 26.252 17.3523 24.6666 17.3333ZM24.6666 25.3333C24.2544 25.3319 23.8526 25.2031 23.5165 24.9643C23.1804 24.7256 22.9263 24.3887 22.7893 23.9999C22.7103 23.7864 22.6688 23.5609 22.6666 23.3333C22.6666 22.8028 22.8773 22.2941 23.2524 21.919C23.6275 21.544 24.1362 21.3333 24.6666 21.3333C25.1971 21.3333 25.7058 21.544 26.0808 21.919C26.4559 22.2941 26.6666 22.8028 26.6666 23.3333C26.6644 23.5609 26.6229 23.7864 26.544 23.9999C26.4069 24.3887 26.1529 24.7256 25.8168 24.9643C25.4806 25.2031 25.0789 25.3319 24.6666 25.3333ZM29.3333 24.6666C29.3333 24.8434 29.2631 25.013 29.138 25.138C29.013 25.263 28.8434 25.3333 28.6666 25.3333C28.4898 25.3333 28.3202 25.263 28.1952 25.138C28.0702 25.013 28 24.8434 28 24.6666V20.0706C28.8377 20.9526 29.3135 22.117 29.3333 23.3333V24.6666Z" fill="#EE96A6"/>
</g>
<defs>
<clipPath id="clip0_147_323">
<rect width="32" height="32" fill="white"/>
</clipPath>
</defs>
</svg>
