<svg width="32" height="32" viewBox="0 0 32 32" fill="none" xmlns="http://www.w3.org/2000/svg">
<path d="M22.635 0H9.36503C7.85972 0 6.63501 1.22471 6.63501 2.73002V12.5906C6.63501 14.4976 6.70157 16.4295 6.83275 18.3325L7.67104 30.4875C7.72951 31.3357 8.44132 32 9.29142 32H22.7087C23.5588 32 24.2705 31.3357 24.3291 30.4875L25.1674 18.3325C25.2985 16.4298 25.3651 14.4979 25.3651 12.5906V2.73002C25.365 1.22471 24.1403 0 22.635 0ZM21.5637 30.9633H10.4363V29.8229C10.4363 29.8039 10.4518 29.7883 10.4709 29.7883H21.5292C21.5483 29.7883 21.5637 29.8039 21.5637 29.8229V30.9633ZM24.3283 12.5906C24.3283 14.4742 24.2626 16.3821 24.133 18.2612L23.2947 30.4162C23.2736 30.723 23.0161 30.9633 22.7086 30.9633H22.6005V29.8229C22.6005 29.2322 22.1199 28.7516 21.5292 28.7516H10.4709C9.88014 28.7516 9.39959 29.2322 9.39959 29.8229V30.9633H9.29142C8.98393 30.9633 8.72655 30.723 8.7054 30.4162L7.86711 18.2612C7.73745 16.3817 7.67173 14.4739 7.67173 12.5906V2.73002C7.67173 1.79629 8.43136 1.03672 9.36503 1.03672H22.635C23.5687 1.03672 24.3283 1.79629 24.3283 2.73002V12.5906Z" fill="#EE96A6"/>
<path d="M11.5767 16.5874C10.6811 16.5874 9.95251 17.316 9.95251 18.2116C9.95251 19.1072 10.6811 19.8358 11.5767 19.8358C12.4723 19.8358 13.2009 19.1072 13.2009 18.2116C13.2009 17.316 12.4723 16.5874 11.5767 16.5874ZM11.5767 18.7991C11.2528 18.7991 10.9892 18.5355 10.9892 18.2116C10.9892 17.8877 11.2528 17.6241 11.5767 17.6241C11.9006 17.6241 12.1642 17.8877 12.1642 18.2116C12.1642 18.5355 11.9006 18.7991 11.5767 18.7991Z" fill="#EE96A6"/>
<path d="M16 16.5874C15.1045 16.5874 14.3759 17.316 14.3759 18.2116C14.3759 19.1072 15.1045 19.8358 16 19.8358C16.8956 19.8358 17.6242 19.1072 17.6242 18.2116C17.6242 17.316 16.8956 16.5874 16 16.5874ZM16 18.7991C15.6761 18.7991 15.4126 18.5355 15.4126 18.2116C15.4126 17.8877 15.6761 17.6241 16 17.6241C16.324 17.6241 16.5875 17.8877 16.5875 18.2116C16.5875 18.5355 16.324 18.7991 16 18.7991Z" fill="#EE96A6"/>
<path d="M20.4234 16.5874C19.5278 16.5874 18.7992 17.316 18.7992 18.2116C18.7992 19.1072 19.5278 19.8358 20.4234 19.8358C21.319 19.8358 22.0476 19.1072 22.0476 18.2116C22.0476 17.316 21.319 16.5874 20.4234 16.5874ZM20.4234 18.7991C20.0994 18.7991 19.8359 18.5355 19.8359 18.2116C19.8359 17.8877 20.0994 17.6241 20.4234 17.6241C20.7473 17.6241 21.0109 17.8877 21.0109 18.2116C21.0109 18.5355 20.7473 18.7991 20.4234 18.7991Z" fill="#EE96A6"/>
<path d="M11.5767 20.4578C10.6811 20.4578 9.95251 21.1864 9.95251 22.082C9.95251 22.9775 10.6811 23.7061 11.5767 23.7061C12.4723 23.7061 13.2009 22.9775 13.2009 22.082C13.2009 21.1864 12.4723 20.4578 11.5767 20.4578ZM11.5767 22.6694C11.2528 22.6694 10.9892 22.4059 10.9892 22.082C10.9892 21.758 11.2528 21.4945 11.5767 21.4945C11.9006 21.4945 12.1642 21.758 12.1642 22.082C12.1642 22.4059 11.9006 22.6694 11.5767 22.6694Z" fill="#EE96A6"/>
<path d="M16 20.4578C15.1045 20.4578 14.3759 21.1864 14.3759 22.082C14.3759 22.9775 15.1045 23.7061 16 23.7061C16.8956 23.7061 17.6242 22.9775 17.6242 22.082C17.6242 21.1864 16.8956 20.4578 16 20.4578ZM16 22.6694C15.6761 22.6694 15.4126 22.4059 15.4126 22.082C15.4126 21.758 15.6761 21.4945 16 21.4945C16.324 21.4945 16.5875 21.758 16.5875 22.082C16.5875 22.4059 16.324 22.6694 16 22.6694Z" fill="#EE96A6"/>
<path d="M20.4234 20.4578C19.5278 20.4578 18.7992 21.1864 18.7992 22.082C18.7992 22.9775 19.5278 23.7061 20.4234 23.7061C21.319 23.7061 22.0476 22.9775 22.0476 22.082C22.0476 21.1864 21.319 20.4578 20.4234 20.4578ZM20.4234 22.6694C20.0994 22.6694 19.8359 22.4059 19.8359 22.082C19.8359 21.758 20.0994 21.4945 20.4234 21.4945C20.7473 21.4945 21.0109 21.758 21.0109 22.082C21.0109 22.4059 20.7473 22.6694 20.4234 22.6694Z" fill="#EE96A6"/>
<path d="M11.5767 24.3284C10.6811 24.3284 9.95251 25.057 9.95251 25.9526C9.95251 26.8481 10.6811 27.5767 11.5767 27.5767C12.4723 27.5767 13.2009 26.8481 13.2009 25.9526C13.2009 25.057 12.4723 24.3284 11.5767 24.3284ZM11.5767 26.54C11.2528 26.54 10.9892 26.2765 10.9892 25.9526C10.9892 25.6286 11.2528 25.3651 11.5767 25.3651C11.9006 25.3651 12.1642 25.6286 12.1642 25.9526C12.1642 26.2765 11.9006 26.54 11.5767 26.54Z" fill="#EE96A6"/>
<path d="M16 24.3284C15.1045 24.3284 14.3759 25.057 14.3759 25.9526C14.3759 26.8481 15.1045 27.5767 16 27.5767C16.8956 27.5767 17.6242 26.8481 17.6242 25.9526C17.6242 25.057 16.8956 24.3284 16 24.3284ZM16 26.54C15.6761 26.54 15.4126 26.2765 15.4126 25.9526C15.4126 25.6286 15.6761 25.3651 16 25.3651C16.324 25.3651 16.5875 25.6286 16.5875 25.9526C16.5875 26.2765 16.324 26.54 16 26.54Z" fill="#EE96A6"/>
<path d="M20.4234 24.3284C19.5278 24.3284 18.7992 25.057 18.7992 25.9526C18.7992 26.8481 19.5278 27.5767 20.4234 27.5767C21.319 27.5767 22.0476 26.8481 22.0476 25.9526C22.0476 25.057 21.319 24.3284 20.4234 24.3284ZM20.4234 26.54C20.0994 26.54 19.8359 26.2765 19.8359 25.9526C19.8359 25.6286 20.0994 25.3651 20.4234 25.3651C20.7473 25.3651 21.0109 25.6286 21.0109 25.9526C21.0109 26.2765 20.7473 26.54 20.4234 26.54Z" fill="#EE96A6"/>
<path d="M21.5292 3.87036H10.4709C9.57528 3.87036 8.84668 4.59897 8.84668 5.49455V13.2354C8.84668 14.131 9.57528 14.8596 10.4709 14.8596H21.5292C22.4248 14.8596 23.1534 14.131 23.1534 13.2354V5.49455C23.1534 4.59897 22.4248 3.87036 21.5292 3.87036ZM12.1642 13.8228H10.4709C10.1469 13.8228 9.8834 13.5593 9.8834 13.2354V12.6462C9.89487 12.6469 9.90627 12.6479 9.91795 12.6479H12.1642V13.8228ZM15.4817 13.8228H13.2009V12.6479H15.4817V13.8228ZM18.7992 13.8228H16.5184V12.6479H18.7992V13.8228ZM22.1167 13.2354C22.1167 13.5593 21.8531 13.8228 21.5292 13.8228H19.8359V12.6479H22.0821C22.0938 12.6479 22.1052 12.6469 22.1167 12.6462V13.2354ZM22.1167 11.6129C22.1052 11.6121 22.0938 11.6112 22.0821 11.6112H9.91795C9.90627 11.6112 9.89487 11.6121 9.8834 11.6129V5.49455C9.8834 5.17061 10.1469 4.90708 10.4709 4.90708H21.5292C21.8531 4.90708 22.1167 5.17061 22.1167 5.49455V11.6129Z" fill="#EE96A6"/>
</svg>
