<svg width="32" height="32" viewBox="0 0 32 32" fill="none" xmlns="http://www.w3.org/2000/svg">
<path d="M29.8229 15.2051H27.826L17.4546 4.83371C17.5629 4.61621 17.6242 4.37127 17.6242 4.11223C17.6242 3.21664 16.8956 2.48804 16 2.48804C15.1044 2.48804 14.3758 3.21664 14.3758 4.11223C14.3758 4.37127 14.4371 4.61621 14.5454 4.83371L4.17403 15.2051H2.17711C0.976657 15.2051 0 16.1818 0 17.3822V27.3347C0 28.5351 0.976657 29.5118 2.17711 29.5118H29.8229C31.0233 29.5118 32 28.5351 32 27.3347V17.3822C32 16.1818 31.0233 15.2051 29.8229 15.2051ZM16 3.52475C16.3239 3.52475 16.5875 3.78829 16.5875 4.11223C16.5875 4.43617 16.3239 4.6997 16 4.6997C15.6761 4.6997 15.4125 4.43617 15.4125 4.11223C15.4125 3.78829 15.6761 3.52475 16 3.52475ZM15.2785 5.56681C15.496 5.67511 15.741 5.73642 16 5.73642C16.259 5.73642 16.504 5.67511 16.7215 5.56681L26.3598 15.2051H5.64022L15.2785 5.56681ZM30.9633 27.3347C30.9633 27.9636 30.4517 28.4751 29.8229 28.4751H2.17711C1.5483 28.4751 1.03672 27.9636 1.03672 27.3347V17.3822C1.03672 16.7533 1.5483 16.2418 2.17711 16.2418H29.8229C30.4517 16.2418 30.9633 16.7533 30.9633 17.3822V27.3347Z" fill="#EE96A6"/>
<path d="M6.8769 18.5227C5.52399 18.5227 4.42334 19.6234 4.42334 20.9763V23.7408C4.42334 25.0938 5.52399 26.1944 6.8769 26.1944C8.22982 26.1944 9.33047 25.0938 9.33047 23.7408V20.9763C9.33047 19.6234 8.22982 18.5227 6.8769 18.5227ZM8.29375 23.7408C8.29375 24.5221 7.65817 25.1577 6.8769 25.1577C6.09563 25.1577 5.46006 24.5221 5.46006 23.7408V20.9763C5.46006 20.195 6.09563 19.5594 6.8769 19.5594C7.65817 19.5594 8.29375 20.195 8.29375 20.9763V23.7408Z" fill="#EE96A6"/>
<path d="M12.9589 18.5227H11.0237C10.7375 18.5227 10.5054 18.7547 10.5054 19.0411V25.6761C10.5054 25.9624 10.7375 26.1944 11.0237 26.1944C11.31 26.1944 11.5421 25.9624 11.5421 25.6761V23.4298H12.9589C14.3119 23.4298 15.4125 22.3292 15.4125 20.9763C15.4125 19.6234 14.3119 18.5227 12.9589 18.5227ZM12.9589 22.3931H11.5421V19.5594H12.9589C13.7402 19.5594 14.3758 20.195 14.3758 20.9763C14.3758 21.7575 13.7402 22.3931 12.9589 22.3931Z" fill="#EE96A6"/>
<path d="M20.4234 19.5594C20.7097 19.5594 20.9417 19.3274 20.9417 19.0411C20.9417 18.7547 20.7097 18.5227 20.4234 18.5227H17.1059C16.8196 18.5227 16.5875 18.7547 16.5875 19.0411V25.6761C16.5875 25.9624 16.8196 26.1944 17.1059 26.1944H20.4234C20.7097 26.1944 20.9417 25.9624 20.9417 25.6761C20.9417 25.3897 20.7097 25.1577 20.4234 25.1577H17.6242V22.8769H19.3175C19.6038 22.8769 19.8359 22.6449 19.8359 22.3586C19.8359 22.0722 19.6038 21.8402 19.3175 21.8402H17.6242V19.5594H20.4234Z" fill="#EE96A6"/>
<path d="M26.5054 18.5225C26.2191 18.5225 25.987 18.7546 25.987 19.0409V23.7585L23.0828 18.7797C22.9647 18.5774 22.7257 18.4793 22.4997 18.5405C22.2737 18.6017 22.1167 18.8067 22.1167 19.0409V25.6759C22.1167 25.9622 22.3488 26.1943 22.6351 26.1943C22.9213 26.1943 23.1534 25.9622 23.1534 25.6759V20.9583L26.0577 25.9371C26.1522 26.0992 26.3244 26.1943 26.5054 26.1943C26.5503 26.1943 26.5958 26.1884 26.6407 26.1763C26.8668 26.1151 27.0238 25.9101 27.0238 25.6759V19.0409C27.0238 18.7546 26.7917 18.5225 26.5054 18.5225Z" fill="#EE96A6"/>
</svg>
