<svg width="48" height="48" viewBox="0 0 48 48" fill="none" xmlns="http://www.w3.org/2000/svg">
<g clip-path="url(#clip0_146_830)">
<path d="M46.3931 18.2462H46.3413V9.90067C46.3413 8.09999 44.8763 6.63501 43.0756 6.63501H3.26566C1.46498 6.63501 0 8.09999 0 9.90067V38.0994C0 39.9 1.46498 41.365 3.26566 41.365H43.0756C44.8763 41.365 46.3413 39.9 46.3413 38.0994V29.7538H46.3931C47.2792 29.7538 48 29.033 48 28.1469V19.8532C48 18.9671 47.2792 18.2462 46.3931 18.2462ZM44.7862 38.0994C44.7862 39.0426 44.0188 39.81 43.0756 39.81H3.26566C2.32245 39.81 1.55508 39.0426 1.55508 38.0994V38.0476H3.26628C3.69569 38.0476 4.04382 37.6996 4.04382 37.2701C4.04382 36.8406 3.69569 36.4926 3.26628 36.4926H1.55508V11.5076H3.26566C3.69507 11.5076 4.0432 11.1596 4.0432 10.73C4.0432 10.3005 3.69507 9.9525 3.26566 9.9525H1.55508V9.90067C1.55508 8.95746 2.32245 8.19009 3.26566 8.19009H43.0756C44.0188 8.19009 44.7862 8.95746 44.7862 9.90067V18.2462H34.7819C31.6092 18.2462 29.0281 20.8274 29.0281 24C29.0281 27.1727 31.6092 29.7538 34.7819 29.7538H44.7862V38.0994ZM46.4449 28.1469C46.4449 28.1754 46.4217 28.1987 46.3931 28.1987H45.5657C45.565 28.1987 45.5643 28.1986 45.5637 28.1986C45.5631 28.1986 45.5624 28.1987 45.5617 28.1987H34.7819C32.4667 28.1987 30.5832 26.3152 30.5832 24C30.5832 21.6848 32.4667 19.8013 34.7819 19.8013H45.5597C45.561 19.8013 45.5624 19.8015 45.5637 19.8015C45.5651 19.8015 45.5664 19.8013 45.5678 19.8013H46.3931C46.4217 19.8013 46.4449 19.8246 46.4449 19.8532V28.1469Z" fill="url(#paint0_linear_146_830)"/>
<path d="M34.7819 21.5637C33.4385 21.5637 32.3456 22.6566 32.3456 24C32.3456 25.3434 33.4385 26.4363 34.7819 26.4363C36.1252 26.4363 37.2182 25.3434 37.2182 24C37.2182 22.6566 36.1252 21.5637 34.7819 21.5637ZM34.7819 24.8812C34.296 24.8812 33.9007 24.4859 33.9007 24C33.9007 23.5141 34.296 23.1188 34.7819 23.1188C35.2678 23.1188 35.6631 23.5141 35.6631 24C35.6631 24.4859 35.2678 24.8812 34.7819 24.8812Z" fill="url(#paint1_linear_146_830)"/>
<path d="M6.58314 11.5075H9.07126C9.50067 11.5075 9.8488 11.1594 9.8488 10.7299C9.8488 10.3004 9.50067 9.95239 9.07126 9.95239H6.58314C6.15373 9.95239 5.8056 10.3004 5.8056 10.7299C5.8056 11.1594 6.15373 11.5075 6.58314 11.5075Z" fill="url(#paint2_linear_146_830)"/>
<path d="M12.3887 11.5075H14.8769C15.3063 11.5075 15.6544 11.1594 15.6544 10.7299C15.6544 10.3004 15.3063 9.95239 14.8769 9.95239H12.3887C11.9593 9.95239 11.6112 10.3004 11.6112 10.7299C11.6112 11.1594 11.9593 11.5075 12.3887 11.5075Z" fill="url(#paint3_linear_146_830)"/>
<path d="M18.1944 11.5075H20.6825C21.1119 11.5075 21.4601 11.1594 21.4601 10.7299C21.4601 10.3004 21.1119 9.95239 20.6825 9.95239H18.1944C17.765 9.95239 17.4169 10.3004 17.4169 10.7299C17.4169 11.1594 17.765 11.5075 18.1944 11.5075Z" fill="url(#paint4_linear_146_830)"/>
<path d="M24 11.5075H26.4881C26.9175 11.5075 27.2657 11.1594 27.2657 10.7299C27.2657 10.3004 26.9175 9.95239 26.4881 9.95239H24C23.5706 9.95239 23.2225 10.3004 23.2225 10.7299C23.2225 11.1594 23.5706 11.5075 24 11.5075Z" fill="url(#paint5_linear_146_830)"/>
<path d="M29.8056 11.5075H32.2937C32.7231 11.5075 33.0713 11.1594 33.0713 10.7299C33.0713 10.3004 32.7231 9.95239 32.2937 9.95239H29.8056C29.3762 9.95239 29.0281 10.3004 29.0281 10.7299C29.0281 11.1594 29.3762 11.5075 29.8056 11.5075Z" fill="url(#paint6_linear_146_830)"/>
<path d="M35.6112 11.5075H38.0993C38.5287 11.5075 38.8769 11.1594 38.8769 10.7299C38.8769 10.3004 38.5287 9.95239 38.0993 9.95239H35.6112C35.1818 9.95239 34.8337 10.3004 34.8337 10.7299C34.8337 11.1594 35.1818 11.5075 35.6112 11.5075Z" fill="url(#paint7_linear_146_830)"/>
<path d="M41.4168 11.5075H41.4687V11.5593C41.4687 11.9888 41.8168 12.3368 42.2462 12.3368C42.6756 12.3368 43.0237 11.9888 43.0237 11.5593V10.7299C43.0237 10.3004 42.6756 9.95239 42.2462 9.95239H41.4168C40.9874 9.95239 40.6393 10.3004 40.6393 10.7299C40.6393 11.1594 40.9874 11.5075 41.4168 11.5075Z" fill="url(#paint8_linear_146_830)"/>
<path d="M42.2462 14.0994C41.8168 14.0994 41.4687 14.4474 41.4687 14.8769V16.5357C41.4687 16.9652 41.8168 17.3132 42.2462 17.3132C42.6756 17.3132 43.0238 16.9652 43.0238 16.5357V14.8769C43.0238 14.4474 42.6756 14.0994 42.2462 14.0994Z" fill="url(#paint9_linear_146_830)"/>
<path d="M9.07187 36.4927H6.58375C6.15434 36.4927 5.80621 36.8407 5.80621 37.2702C5.80621 37.6997 6.15434 38.0478 6.58375 38.0478H9.07187C9.50128 38.0478 9.84941 37.6997 9.84941 37.2702C9.84941 36.8407 9.50128 36.4927 9.07187 36.4927Z" fill="url(#paint10_linear_146_830)"/>
<path d="M14.8775 36.4927H12.3894C11.96 36.4927 11.6119 36.8407 11.6119 37.2702C11.6119 37.6997 11.96 38.0478 12.3894 38.0478H14.8775C15.3069 38.0478 15.6551 37.6997 15.6551 37.2702C15.6551 36.8407 15.3069 36.4927 14.8775 36.4927Z" fill="url(#paint11_linear_146_830)"/>
<path d="M20.6831 36.4927H18.195C17.7656 36.4927 17.4175 36.8407 17.4175 37.2702C17.4175 37.6997 17.7656 38.0478 18.195 38.0478H20.6831C21.1125 38.0478 21.4607 37.6997 21.4607 37.2702C21.4607 36.8407 21.1125 36.4927 20.6831 36.4927Z" fill="url(#paint12_linear_146_830)"/>
<path d="M26.4887 36.4927H24.0006C23.5712 36.4927 23.2231 36.8407 23.2231 37.2702C23.2231 37.6997 23.5712 38.0478 24.0006 38.0478H26.4887C26.9181 38.0478 27.2663 37.6997 27.2663 37.2702C27.2663 36.8407 26.9181 36.4927 26.4887 36.4927Z" fill="url(#paint13_linear_146_830)"/>
<path d="M32.2943 36.4927H29.8062C29.3768 36.4927 29.0287 36.8407 29.0287 37.2702C29.0287 37.6997 29.3768 38.0478 29.8062 38.0478H32.2943C32.7238 38.0478 33.0719 37.6997 33.0719 37.2702C33.0719 36.8407 32.7238 36.4927 32.2943 36.4927Z" fill="url(#paint14_linear_146_830)"/>
<path d="M35.6118 38.0478H38.0999C38.5294 38.0478 38.8775 37.6997 38.8775 37.2702C38.8775 36.8407 38.5294 36.4927 38.0999 36.4927H35.6118C35.1824 36.4927 34.8343 36.8407 34.8343 37.2702C34.8343 37.6997 35.1824 38.0478 35.6118 38.0478Z" fill="url(#paint15_linear_146_830)"/>
<path d="M41.4175 38.0475H42.2469C42.6763 38.0475 43.0244 37.6995 43.0244 37.27V36.4406C43.0244 36.0111 42.6763 35.6631 42.2469 35.6631C41.8175 35.6631 41.4693 36.0111 41.4693 36.4406V36.4925H41.4175C40.9881 36.4925 40.64 36.8405 40.64 37.27C40.64 37.6995 40.9881 38.0475 41.4175 38.0475Z" fill="url(#paint16_linear_146_830)"/>
<path d="M42.2468 33.9008C42.6762 33.9008 43.0244 33.5528 43.0244 33.1233V31.4646C43.0244 31.035 42.6762 30.687 42.2468 30.687C41.8174 30.687 41.4693 31.035 41.4693 31.4646V33.1233C41.4693 33.5528 41.8174 33.9008 42.2468 33.9008Z" fill="url(#paint17_linear_146_830)"/>
</g>
<defs>
<linearGradient id="paint0_linear_146_830" x1="8.64748" y1="11.1499" x2="19.2573" y2="49.0078" gradientUnits="userSpaceOnUse">
<stop offset="0.1" stop-color="#3594AD"/>
<stop offset="0.565" stop-color="#8BB7A0"/>
<stop offset="1" stop-color="#FBE58E"/>
</linearGradient>
<linearGradient id="paint1_linear_146_830" x1="33.2234" y1="22.1972" x2="35.1528" y2="27.1784" gradientUnits="userSpaceOnUse">
<stop offset="0.1" stop-color="#3594AD"/>
<stop offset="0.565" stop-color="#8BB7A0"/>
<stop offset="1" stop-color="#FBE58E"/>
</linearGradient>
<linearGradient id="paint2_linear_146_830" x1="6.53401" y1="10.1546" x2="6.80046" y2="11.9431" gradientUnits="userSpaceOnUse">
<stop offset="0.1" stop-color="#3594AD"/>
<stop offset="0.565" stop-color="#8BB7A0"/>
<stop offset="1" stop-color="#FBE58E"/>
</linearGradient>
<linearGradient id="paint3_linear_146_830" x1="12.3396" y1="10.1546" x2="12.6061" y2="11.9431" gradientUnits="userSpaceOnUse">
<stop offset="0.1" stop-color="#3594AD"/>
<stop offset="0.565" stop-color="#8BB7A0"/>
<stop offset="1" stop-color="#FBE58E"/>
</linearGradient>
<linearGradient id="paint4_linear_146_830" x1="18.1453" y1="10.1546" x2="18.4117" y2="11.9431" gradientUnits="userSpaceOnUse">
<stop offset="0.1" stop-color="#3594AD"/>
<stop offset="0.565" stop-color="#8BB7A0"/>
<stop offset="1" stop-color="#FBE58E"/>
</linearGradient>
<linearGradient id="paint5_linear_146_830" x1="23.9509" y1="10.1546" x2="24.2173" y2="11.9431" gradientUnits="userSpaceOnUse">
<stop offset="0.1" stop-color="#3594AD"/>
<stop offset="0.565" stop-color="#8BB7A0"/>
<stop offset="1" stop-color="#FBE58E"/>
</linearGradient>
<linearGradient id="paint6_linear_146_830" x1="29.7565" y1="10.1546" x2="30.0229" y2="11.9431" gradientUnits="userSpaceOnUse">
<stop offset="0.1" stop-color="#3594AD"/>
<stop offset="0.565" stop-color="#8BB7A0"/>
<stop offset="1" stop-color="#FBE58E"/>
</linearGradient>
<linearGradient id="paint7_linear_146_830" x1="35.5621" y1="10.1546" x2="35.8285" y2="11.9431" gradientUnits="userSpaceOnUse">
<stop offset="0.1" stop-color="#3594AD"/>
<stop offset="0.565" stop-color="#8BB7A0"/>
<stop offset="1" stop-color="#FBE58E"/>
</linearGradient>
<linearGradient id="paint8_linear_146_830" x1="41.0689" y1="10.2624" x2="42.013" y2="12.7" gradientUnits="userSpaceOnUse">
<stop offset="0.1" stop-color="#3594AD"/>
<stop offset="0.565" stop-color="#8BB7A0"/>
<stop offset="1" stop-color="#FBE58E"/>
</linearGradient>
<linearGradient id="paint9_linear_146_830" x1="41.7488" y1="14.5172" x2="43.5922" y2="16.82" gradientUnits="userSpaceOnUse">
<stop offset="0.1" stop-color="#3594AD"/>
<stop offset="0.565" stop-color="#8BB7A0"/>
<stop offset="1" stop-color="#FBE58E"/>
</linearGradient>
<linearGradient id="paint10_linear_146_830" x1="6.53462" y1="36.6948" x2="6.80107" y2="38.4834" gradientUnits="userSpaceOnUse">
<stop offset="0.1" stop-color="#3594AD"/>
<stop offset="0.565" stop-color="#8BB7A0"/>
<stop offset="1" stop-color="#FBE58E"/>
</linearGradient>
<linearGradient id="paint11_linear_146_830" x1="12.3403" y1="36.6948" x2="12.6067" y2="38.4834" gradientUnits="userSpaceOnUse">
<stop offset="0.1" stop-color="#3594AD"/>
<stop offset="0.565" stop-color="#8BB7A0"/>
<stop offset="1" stop-color="#FBE58E"/>
</linearGradient>
<linearGradient id="paint12_linear_146_830" x1="18.1459" y1="36.6948" x2="18.4123" y2="38.4834" gradientUnits="userSpaceOnUse">
<stop offset="0.1" stop-color="#3594AD"/>
<stop offset="0.565" stop-color="#8BB7A0"/>
<stop offset="1" stop-color="#FBE58E"/>
</linearGradient>
<linearGradient id="paint13_linear_146_830" x1="23.9515" y1="36.6948" x2="24.2179" y2="38.4834" gradientUnits="userSpaceOnUse">
<stop offset="0.1" stop-color="#3594AD"/>
<stop offset="0.565" stop-color="#8BB7A0"/>
<stop offset="1" stop-color="#FBE58E"/>
</linearGradient>
<linearGradient id="paint14_linear_146_830" x1="29.7571" y1="36.6948" x2="30.0235" y2="38.4834" gradientUnits="userSpaceOnUse">
<stop offset="0.1" stop-color="#3594AD"/>
<stop offset="0.565" stop-color="#8BB7A0"/>
<stop offset="1" stop-color="#FBE58E"/>
</linearGradient>
<linearGradient id="paint15_linear_146_830" x1="35.5627" y1="36.6948" x2="35.8292" y2="38.4834" gradientUnits="userSpaceOnUse">
<stop offset="0.1" stop-color="#3594AD"/>
<stop offset="0.565" stop-color="#8BB7A0"/>
<stop offset="1" stop-color="#FBE58E"/>
</linearGradient>
<linearGradient id="paint16_linear_146_830" x1="41.0695" y1="35.9731" x2="42.0137" y2="38.4107" gradientUnits="userSpaceOnUse">
<stop offset="0.1" stop-color="#3594AD"/>
<stop offset="0.565" stop-color="#8BB7A0"/>
<stop offset="1" stop-color="#FBE58E"/>
</linearGradient>
<linearGradient id="paint17_linear_146_830" x1="41.7495" y1="31.1048" x2="43.5928" y2="33.4076" gradientUnits="userSpaceOnUse">
<stop offset="0.1" stop-color="#3594AD"/>
<stop offset="0.565" stop-color="#8BB7A0"/>
<stop offset="1" stop-color="#FBE58E"/>
</linearGradient>
<clipPath id="clip0_146_830">
<rect width="48" height="48" fill="white"/>
</clipPath>
</defs>
</svg>
