<svg width="44" height="44" viewBox="0 0 44 44" fill="none" xmlns="http://www.w3.org/2000/svg">
<path fill-rule="evenodd" clip-rule="evenodd" d="M21.9998 7.33332C13.8997 7.33332 7.33317 13.8998 7.33317 22C7.33317 30.1002 13.8997 36.6667 21.9998 36.6667C30.1001 36.6667 36.6665 30.1002 36.6665 22C36.6665 13.8998 30.1001 7.33332 21.9998 7.33332ZM3.6665 22C3.6665 11.8748 11.8746 3.66666 21.9998 3.66666C32.1251 3.66666 40.3332 11.8748 40.3332 22C40.3332 32.1253 32.1251 40.3333 21.9998 40.3333C11.8746 40.3333 3.6665 32.1253 3.6665 22ZM21.9998 12.8333C23.0124 12.8333 23.8332 13.6541 23.8332 14.6667V20.1667H29.3332C30.3457 20.1667 31.1665 20.9875 31.1665 22C31.1665 23.0125 30.3457 23.8333 29.3332 23.8333H23.8332V29.3333C23.8332 30.3458 23.0124 31.1667 21.9998 31.1667C20.9873 31.1667 20.1665 30.3458 20.1665 29.3333V23.8333H14.6665C13.654 23.8333 12.8332 23.0125 12.8332 22C12.8332 20.9875 13.654 20.1667 14.6665 20.1667H20.1665V14.6667C20.1665 13.6541 20.9873 12.8333 21.9998 12.8333Z" fill="#064151"/>
</svg>
