<svg width="100" height="100" viewBox="0 0 100 100" fill="none" xmlns="http://www.w3.org/2000/svg">
<g clip-path="url(#clip0_85_261)">
<path d="M83.9977 58.7472H83.9262C85.4504 56.7489 86.7888 54.0666 86.7359 50.8407C86.6644 46.4805 84.0579 42.2146 78.989 38.1615C79.6227 36.2585 79.7573 34.3822 79.3854 32.544C77.9115 25.2617 70.0091 22.3533 62.7575 20.7365C63.0152 19.8803 63.1554 18.9736 63.1554 18.0345C63.1554 14.4807 61.1716 11.3818 58.2537 9.78572C61.1567 3.89135 65.0275 3.23973 66.5845 3.23973C68.5683 3.23973 69.8156 3.66436 70.5372 4.04729C71.0985 4.34513 71.7789 4.29718 72.2847 3.91273C73.2266 3.19675 73.1052 1.74946 72.0607 1.19373C70.8988 0.575161 69.1329 0 66.5845 0C63.4789 0 60.5662 1.42894 58.1612 4.13217C57.3515 5.04232 56.1813 6.57644 55.1593 8.74404C54.7027 8.67558 54.2355 8.63929 53.7601 8.63929C50.2368 8.63929 47.1619 10.5898 45.5541 13.4669C44.9656 12.8166 44.3155 11.9658 43.8574 11.003C43.6647 10.598 43.3126 10.2911 42.8852 10.1553C42.4578 10.0196 41.993 10.0669 41.6021 10.2864C36.7593 13.003 33.2235 16.6222 31.0924 21.0436C29.2699 24.8248 28.933 28.3084 28.9267 30.3341C28.7898 30.3872 28.6541 30.4403 28.5274 30.4947C24.3345 32.2917 21.9168 35.7127 21.5349 40.3876C21.3825 42.2563 21.5935 43.9615 21.8187 45.1317C18.482 46.3273 16.1615 48.6131 15.3248 51.6085C14.6643 53.9731 15.0051 56.5385 16.1756 58.7474H14.8831C14.3905 58.7474 13.9246 58.9716 13.617 59.3567C13.3097 59.7418 13.1944 60.2457 13.3034 60.7262L21.3313 96.0493C21.86 98.3754 23.8952 100 26.2807 100H72.5996C74.9849 100 77.0203 98.3754 77.5491 96.0493L85.5769 60.7262C85.686 60.2457 85.5707 59.7418 85.2633 59.3567C84.9564 58.9714 84.4905 58.7472 83.9977 58.7472ZM53.7601 11.879C57.1543 11.879 59.9156 14.6404 59.9156 18.0345C59.9156 21.4287 57.1543 24.19 53.7601 24.19C50.366 24.19 47.6046 21.4287 47.6046 18.0345C47.6046 14.6404 50.3662 11.879 53.7601 11.879ZM26.2811 96.7601C25.4183 96.7601 24.6822 96.1724 24.4909 95.3311L16.9127 61.9869H22.1555L27.9466 95.9622C27.9937 96.2387 28.06 96.5043 28.1405 96.7601H26.2811ZM32.071 96.7601C31.7768 96.7601 31.2898 96.2935 31.1405 95.4179L25.4421 61.9869H30.7157L34.5664 95.873C34.6017 96.1819 34.6531 96.4782 34.7194 96.7601H32.071ZM38.1537 96.7601C38.041 96.5767 37.8617 96.1767 37.7857 95.5071L33.9764 61.9869H39.2708L41.1911 95.7819C41.2107 96.1292 41.2409 96.4551 41.2811 96.7601H38.1537ZM47.8206 96.7601H44.564C44.5085 96.4825 44.4539 96.0994 44.4254 95.5983L42.5157 61.9869H47.7077C47.7096 61.9869 47.7116 61.9873 47.7135 61.9873C47.7163 61.9873 47.7189 61.9869 47.7217 61.9869H47.8206V96.7601ZM54.4556 95.5983C54.4271 96.0994 54.3725 96.4827 54.3169 96.7601H51.0604V61.9869H56.3653L54.4556 95.5983ZM60.7275 96.7601H57.5999C57.6403 96.4553 57.6703 96.1294 57.6899 95.7819L59.6102 61.9869H64.9048L61.0956 95.5071C61.0195 96.1767 60.8405 96.5767 60.7275 96.7601ZM66.8102 96.7601H64.1616C64.2282 96.4782 64.2796 96.1819 64.3148 95.873L68.1653 61.9869H73.4389L67.7405 95.4179C67.5914 96.2935 67.1044 96.7601 66.8102 96.7601ZM74.3901 95.3311C74.199 96.1726 73.4627 96.7601 72.5998 96.7601H70.7402C70.8208 96.5043 70.8871 96.2387 70.9342 95.9622L76.7255 61.9869H80.1588C80.1601 61.9869 80.1614 61.9871 80.1629 61.9871C80.1646 61.9871 80.1661 61.9869 80.1679 61.9869H81.9685L74.3901 95.3311ZM79.548 58.7472H54.71C58.3521 56.8442 63.0698 54.1774 67.5154 51.0586C68.2478 50.5448 68.4249 49.5347 67.9111 48.8023C67.3973 48.0699 66.3871 47.8928 65.6547 48.4066C57.9385 53.8202 49.1033 57.9528 47.3634 58.7472H20.1161C18.5064 57.0092 17.8507 54.6098 18.4455 52.4798C19.119 50.0684 21.2939 48.3798 24.5697 47.7245C27.6466 47.1092 35.7824 45.3962 44.8578 42.7867C45.7174 42.5394 46.2142 41.642 45.9669 40.7822C45.7196 39.9226 44.823 39.4254 43.9623 39.6731C35.8729 41.9993 28.5412 43.6034 24.9578 44.3401C24.4626 41.6738 24.1354 35.9017 29.8038 33.4723C31.9915 32.5347 36.425 31.7274 41.1187 30.8727L42.6867 30.5865C43.5666 30.425 44.1491 29.5809 43.9876 28.701C43.826 27.8209 42.982 27.2386 42.1021 27.4002L40.5384 27.6857C37.5075 28.2375 34.5818 28.7706 32.1945 29.3544C32.4148 25.5796 34.0137 18.9131 41.8126 13.9345C42.398 14.8088 43.0271 15.5289 43.5271 16.0445C43.8761 16.4043 44.174 16.6861 44.4342 16.9125C44.3902 17.281 44.3649 17.6548 44.3649 18.035C44.3649 23.2155 48.5796 27.4302 53.7601 27.4302C56.8044 27.4302 59.5141 25.9736 61.232 23.722C64.4269 24.4015 67.0705 25.1874 69.2055 26.1056C69.6104 26.7183 69.5549 27.1587 69.4428 27.5105C69.0404 28.7712 66.531 32.2379 51.9545 37.1846C51.1074 37.4721 50.6537 38.3919 50.9411 39.239C51.1701 39.9137 51.7999 40.3388 52.475 40.3388C52.6476 40.3388 52.8232 40.3109 52.9958 40.2524C58.2204 38.4794 62.4588 36.7088 65.5934 34.9898C69.5603 32.8142 71.8292 30.6898 72.5294 28.4954C72.5811 28.3336 72.6223 28.1721 72.6569 28.0103C74.6484 29.4567 75.8005 31.1621 76.2104 33.1872C76.8063 36.131 75.4681 39.3813 72.2333 42.8479C71.623 43.5019 71.6584 44.5269 72.3126 45.1373C72.6249 45.4286 73.0214 45.5729 73.4173 45.5729C73.8506 45.5729 74.283 45.4001 74.602 45.0582C75.8119 43.7617 76.8016 42.471 77.5724 41.1895C81.4514 44.4457 83.445 47.7081 83.497 50.8943C83.5547 54.4295 81.2203 57.2122 79.548 58.7472Z" fill="url(#paint0_linear_85_261)"/>
</g>
<defs>
<linearGradient id="paint0_linear_85_261" x1="26.5" y1="13" x2="75" y2="105" gradientUnits="userSpaceOnUse">
<stop offset="0.1" stop-color="#3594AD"/>
<stop offset="0.565" stop-color="#8BB7A0"/>
<stop offset="1" stop-color="#FBE58E"/>
</linearGradient>
<clipPath id="clip0_85_261">
<rect width="100" height="100" fill="white"/>
</clipPath>
</defs>
</svg>
