<svg width="100" height="100" viewBox="0 0 100 100" fill="none" xmlns="http://www.w3.org/2000/svg">
<g clip-path="url(#clip0_85_288)">
<path d="M82.8295 67.6025C81.1027 67.6025 79.6978 69.0075 79.6978 70.7343C79.6978 72.4611 81.1027 73.8661 82.8295 73.8661C84.5563 73.8661 85.9613 72.4611 85.9613 70.7343C85.9613 69.0075 84.5563 67.6025 82.8295 67.6025Z" fill="url(#paint0_linear_85_288)"/>
<path d="M20.6264 67.6025C18.8996 67.6025 17.4946 69.0075 17.4946 70.7343C17.4946 72.4611 18.8996 73.8661 20.6264 73.8661C22.3532 73.8661 23.7581 72.4611 23.7581 70.7343C23.7581 69.0075 22.3532 67.6025 20.6264 67.6025Z" fill="url(#paint1_linear_85_288)"/>
<path d="M95.9598 47.1515L84.0447 41.8559L75.3228 22.9586C74.2148 20.5575 71.79 19.0063 69.1457 19.0063H5.0756C2.27689 19.0063 0 21.2832 0 24.082V67.2786C0 70.0773 2.27689 72.3542 5.0756 72.3542H10.4964C11.2754 77.2441 15.5208 80.9935 20.6264 80.9935C25.732 80.9935 29.9774 77.2441 30.7564 72.3542H72.6993C73.4783 77.2441 77.7237 80.9935 82.8293 80.9935C87.935 80.9935 92.1803 77.2441 92.9594 72.3542H94.9244C97.7231 72.3542 100 70.0773 100 67.2786V53.3686C100 50.6827 98.4142 48.2423 95.9598 47.1515ZM75.4133 30.8854L80.2978 41.4686H65.4429V30.8854H75.4133ZM20.6264 77.7538C16.756 77.7538 13.6069 74.6047 13.6069 70.7343C13.6069 66.8637 16.756 63.7149 20.6264 63.7149C24.4968 63.7149 27.6458 66.8637 27.6458 70.7343C27.6458 74.6047 24.4968 77.7538 20.6264 77.7538ZM82.8295 77.7538C78.9591 77.7538 75.8101 74.605 75.8101 70.7343C75.8101 66.8637 78.9591 63.7149 82.8295 63.7149C86.7 63.7149 89.849 66.8637 89.849 70.7343C89.849 74.6047 86.7 77.7538 82.8295 77.7538ZM96.7605 62.203H94.9246C94.03 62.203 93.3047 62.928 93.3047 63.8229C93.3047 64.7177 94.03 65.4427 94.9246 65.4427H96.7605V67.2786C96.7605 68.2909 95.9369 69.1144 94.9246 69.1144H92.9596C92.1805 64.2246 87.9352 60.4751 82.8295 60.4751C77.7239 60.4751 73.4786 64.2246 72.6995 69.1144H30.7564C29.9774 64.2246 25.732 60.4751 20.6264 60.4751C15.5208 60.4751 11.2754 64.2246 10.4964 69.1144H5.0756C4.06329 69.1144 3.23975 68.2909 3.23975 67.2786V65.4427H8.53133C9.42594 65.4427 10.1512 64.7177 10.1512 63.8229C10.1512 62.928 9.42594 62.203 8.53133 62.203H3.23975V24.082C3.23975 23.0696 4.06329 22.2461 5.0756 22.2461H69.1457C70.5308 22.2461 71.801 23.0588 72.3814 24.3163L73.9181 27.6457H58.6394C56.7934 27.6457 55.2917 29.1474 55.2917 30.9934V37.9049C55.2917 41.6563 58.3438 44.7083 62.0952 44.7083H82.4859L92.5453 49.1792L92.2905 49.3338C90.7846 50.2481 89.849 51.9105 89.849 53.6723V56.9114C89.849 57.8062 90.5743 58.5313 91.4689 58.5313H96.7605V62.203ZM62.2032 30.8854V41.4686H62.0952C60.1301 41.4686 58.5314 39.8699 58.5314 37.9049V30.9934C58.5314 30.934 58.5798 30.8854 58.6394 30.8854H62.2032ZM96.7605 55.2915H93.0887V53.6725C93.0887 53.0354 93.4272 52.4341 93.9717 52.1032L95.8326 50.9734C96.4173 51.6174 96.7605 52.466 96.7605 53.3684V55.2915Z" fill="url(#paint2_linear_85_288)"/>
<path d="M70.7345 62.2031H32.7214C31.8268 62.2031 31.1016 62.9282 31.1016 63.823C31.1016 64.7178 31.8268 65.4429 32.7214 65.4429H70.7345C71.6291 65.4429 72.3544 64.7178 72.3544 63.823C72.3544 62.9282 71.6291 62.2031 70.7345 62.2031Z" fill="url(#paint3_linear_85_288)"/>
<path d="M25.8098 25.918C24.9152 25.918 24.1899 26.643 24.1899 27.5378V34.5573H22.2461V27.5378C22.2461 26.643 21.5208 25.918 20.6262 25.918C19.7316 25.918 19.0064 26.643 19.0064 27.5378V34.5573H17.0625V27.5378C17.0625 26.643 16.3372 25.918 15.4426 25.918C14.548 25.918 13.8228 26.643 13.8228 27.5378V37.905C13.8228 40.7037 16.0996 42.9806 18.8984 42.9806H19.0064V56.9116C19.0064 57.8064 19.7316 58.5314 20.6262 58.5314C21.5208 58.5314 22.2461 57.8064 22.2461 56.9116V42.9806H22.3541C25.1528 42.9806 27.4297 40.7037 27.4297 37.905V27.5378C27.4297 26.643 26.7044 25.918 25.8098 25.918ZM24.1899 37.905C24.1899 38.9173 23.3664 39.7409 22.3541 39.7409H18.8984C17.886 39.7409 17.0625 38.9173 17.0625 37.905V37.797H24.1899V37.905Z" fill="url(#paint4_linear_85_288)"/>
<path d="M32.7214 58.5314C33.616 58.5314 34.3413 57.8064 34.3413 56.9116V49.8921H37.5932C38.5791 49.8921 39.5102 49.4606 40.1476 48.7083C40.785 47.956 41.0573 46.9668 40.8953 45.994L38.0348 28.8309C37.7536 27.143 36.3074 25.918 34.5875 25.918C32.6653 25.918 31.1016 27.4817 31.1016 29.4039V56.9116C31.1016 57.8064 31.8268 58.5314 32.7214 58.5314ZM34.3413 29.4039C34.3413 29.2683 34.4517 29.1577 34.5964 29.1577C34.7173 29.1577 34.8195 29.2441 34.8394 29.3635L37.6999 46.5267C37.702 46.5403 37.7081 46.5761 37.6759 46.6141C37.6433 46.6524 37.607 46.6524 37.5932 46.6524H34.3413V29.4039Z" fill="url(#paint5_linear_85_288)"/>
</g>
<defs>
<linearGradient id="paint0_linear_85_288" x1="80.8262" y1="68.4168" x2="83.3064" y2="74.82" gradientUnits="userSpaceOnUse">
<stop offset="0.1" stop-color="#3594AD"/>
<stop offset="0.565" stop-color="#8BB7A0"/>
<stop offset="1" stop-color="#FBE58E"/>
</linearGradient>
<linearGradient id="paint1_linear_85_288" x1="18.623" y1="68.4168" x2="21.1032" y2="74.82" gradientUnits="userSpaceOnUse">
<stop offset="0.1" stop-color="#3594AD"/>
<stop offset="0.565" stop-color="#8BB7A0"/>
<stop offset="1" stop-color="#FBE58E"/>
</linearGradient>
<linearGradient id="paint2_linear_85_288" x1="18.0156" y1="27.0647" x2="34.5596" y2="95.9695" gradientUnits="userSpaceOnUse">
<stop offset="0.1" stop-color="#3594AD"/>
<stop offset="0.565" stop-color="#8BB7A0"/>
<stop offset="1" stop-color="#FBE58E"/>
</linearGradient>
<linearGradient id="paint3_linear_85_288" x1="38.5335" y1="62.6243" x2="38.6493" y2="66.4297" gradientUnits="userSpaceOnUse">
<stop offset="0.1" stop-color="#3594AD"/>
<stop offset="0.565" stop-color="#8BB7A0"/>
<stop offset="1" stop-color="#FBE58E"/>
</linearGradient>
<linearGradient id="paint4_linear_85_288" x1="16.2741" y1="30.1577" x2="35.3928" y2="50.7513" gradientUnits="userSpaceOnUse">
<stop offset="0.1" stop-color="#3594AD"/>
<stop offset="0.565" stop-color="#8BB7A0"/>
<stop offset="1" stop-color="#FBE58E"/>
</linearGradient>
<linearGradient id="paint5_linear_85_288" x1="32.8742" y1="30.1577" x2="51.4625" y2="44.6363" gradientUnits="userSpaceOnUse">
<stop offset="0.1" stop-color="#3594AD"/>
<stop offset="0.565" stop-color="#8BB7A0"/>
<stop offset="1" stop-color="#FBE58E"/>
</linearGradient>
<clipPath id="clip0_85_288">
<rect width="100" height="100" fill="white"/>
</clipPath>
</defs>
</svg>
