<svg width="40" height="41" viewBox="0 0 40 41" fill="none" xmlns="http://www.w3.org/2000/svg">
<path d="M0 0.5H36C38.2091 0.5 40 2.29086 40 4.5V36.5C40 38.7091 38.2091 40.5 36 40.5H0V0.5Z" fill="#3594AD"/>
<path fill-rule="evenodd" clip-rule="evenodd" d="M13.2929 16.7929C13.6834 16.4024 14.3166 16.4024 14.7071 16.7929L20 22.0858L25.2929 16.7929C25.6834 16.4024 26.3166 16.4024 26.7071 16.7929C27.0976 17.1834 27.0976 17.8166 26.7071 18.2071L20.7071 24.2071C20.3166 24.5976 19.6834 24.5976 19.2929 24.2071L13.2929 18.2071C12.9024 17.8166 12.9024 17.1834 13.2929 16.7929Z" fill="#FFF5F7"/>
</svg>
