<svg width="48" height="48" viewBox="0 0 48 48" fill="none" xmlns="http://www.w3.org/2000/svg">
<path fill-rule="evenodd" clip-rule="evenodd" d="M24 8C15.1635 8 8 15.1635 8 24C8 32.8366 15.1634 40 24 40C32.8366 40 40 32.8366 40 24C40 15.1634 32.8366 8 24 8ZM4 24C4 12.9543 12.9543 4 24 4C35.0458 4 44 12.9543 44 24C44 35.0458 35.0458 44 24 44C12.9543 44 4 35.0458 4 24ZM18.1231 19.0015C18.789 16.414 21.1356 14.5 23.934 14.5C27.2478 14.5 29.934 17.1863 29.934 20.5C29.934 22.3628 29.025 23.5986 28.0729 24.5175C27.6872 24.8898 27.2481 25.2537 26.8533 25.5809C26.795 25.6292 26.7377 25.6767 26.6817 25.7233C26.2209 26.1066 25.7799 26.4825 25.3482 26.9142C24.5672 27.6953 23.3008 27.6953 22.5198 26.9142C21.7387 26.1332 21.7387 24.8668 22.5198 24.0858C23.0881 23.5175 23.6471 23.0445 24.1238 22.6481C24.187 22.5955 24.2479 22.5449 24.3068 22.496C24.716 22.1564 25.0264 21.8987 25.2951 21.6394C25.843 21.1106 25.934 20.8464 25.934 20.5C25.934 19.3954 25.0386 18.5 23.934 18.5C23.0048 18.5 22.219 19.1355 21.9969 19.9985C21.7216 21.0682 20.6312 21.7122 19.5615 21.4369C18.4918 21.1616 17.8478 20.0712 18.1231 19.0015ZM23.954 33.5H23.934C22.8294 33.5 21.934 32.6046 21.934 31.5C21.934 30.3954 22.8294 29.5 23.934 29.5H23.954C25.0586 29.5 25.954 30.3954 25.954 31.5C25.954 32.6046 25.0586 33.5 23.954 33.5Z" fill="#EE96A6"/>
</svg>
