<svg width="48" height="48" viewBox="0 0 48 48" fill="none" xmlns="http://www.w3.org/2000/svg">
<g clip-path="url(#clip0_85_441)">
<path d="M48 19.4383V11.7666C48 11.2236 47.5582 10.7817 47.0151 10.7817H46.3413V8.24179C46.3413 6.89841 45.2483 5.8055 43.905 5.8055H35.5594V5.75367C35.5594 4.41029 34.4665 3.31738 33.1231 3.31738H14.8769C13.5335 3.31738 12.4406 4.41029 12.4406 5.75367V5.8055H4.09503C2.75165 5.8055 1.65875 6.89841 1.65875 8.24179V10.7817H0.984881C0.441849 10.7817 0 11.2236 0 11.7666V19.4383C0 20.7214 0.660389 21.8526 1.65875 22.5116V43.1273H0.777538C0.34813 43.1273 0 43.4755 0 43.9049C0 44.3343 0.34813 44.6824 0.777538 44.6824H47.2225C47.6519 44.6824 48 44.3343 48 43.9049C48 43.4755 47.6519 43.1273 47.2225 43.1273H46.3413V22.5116C47.3396 21.8526 48 20.7214 48 19.4383ZM13.9957 5.75367C13.9957 5.26776 14.391 4.87246 14.8769 4.87246H33.1231C33.609 4.87246 34.0043 5.26776 34.0043 5.75367V6.579C34.0043 6.58035 34.0041 6.58159 34.0041 6.58304C34.0041 6.58366 34.0042 6.58439 34.0042 6.58512C34.0031 7.06999 33.6083 7.46425 33.1231 7.46425H14.8769C14.391 7.46425 13.9957 7.06895 13.9957 6.58304V5.75367ZM3.21382 8.24179C3.21382 7.75588 3.60912 7.36058 4.09503 7.36058H12.5685C12.8939 8.32369 13.8053 9.01933 14.8769 9.01933H33.1231C34.1947 9.01933 35.1061 8.32369 35.4315 7.36058H43.905C44.3909 7.36058 44.7862 7.75588 44.7862 8.24179V10.7817H3.21382V8.24179ZM40.6393 12.3368V19.4383C40.6393 20.6102 39.6859 21.5636 38.514 21.5636C37.3421 21.5636 36.3888 20.6102 36.3888 19.4383V12.3368H40.6393ZM34.8337 12.3368V19.4383C34.8337 20.6102 33.8803 21.5636 32.7084 21.5636C31.5365 21.5636 30.5832 20.6102 30.5832 19.4383V12.3368H34.8337ZM29.0281 12.3368V19.4383C29.0281 20.6102 28.0747 21.5636 26.9028 21.5636C25.7309 21.5636 24.7775 20.6102 24.7775 19.4383V12.3368H29.0281ZM23.2225 12.3368V19.4383C23.2225 20.6102 22.2691 21.5636 21.0972 21.5636C19.9253 21.5636 18.9719 20.6102 18.9719 19.4383V12.3368H23.2225ZM17.4168 12.3368V19.4383C17.4168 20.6102 16.4635 21.5636 15.2916 21.5636C14.1197 21.5636 13.1663 20.6102 13.1663 19.4383V12.3368H17.4168ZM11.6112 12.3368V19.4383C11.6112 20.6102 10.6579 21.5636 9.48596 21.5636C8.31406 21.5636 7.36069 20.6102 7.36069 19.4383V12.3368H11.6112ZM1.55508 19.4383V12.3368H5.80562V19.4383C5.80562 20.6102 4.85225 21.5636 3.68035 21.5636C2.50844 21.5636 1.55508 20.6102 1.55508 19.4383ZM14.9287 43.1273H6.53132V41.3649H14.9287V43.1273ZM14.9287 39.8098H6.53132V26.4362H14.9287V39.8098ZM44.7862 43.1273H16.4838V25.6586C16.4838 25.2292 16.1357 24.8811 15.7063 24.8811H5.75378C5.32437 24.8811 4.97624 25.2292 4.97624 25.6586V43.1273H3.21382V23.0881C3.36674 23.1076 3.52225 23.1187 3.68035 23.1187C4.85889 23.1187 5.90908 22.5611 6.58315 21.6967C7.25723 22.5611 8.30742 23.1187 9.48596 23.1187C10.6645 23.1187 11.7147 22.5611 12.3888 21.6967C13.0628 22.5611 14.113 23.1187 15.2916 23.1187C16.4701 23.1187 17.5203 22.5611 18.1944 21.6967C18.8685 22.5611 19.9187 23.1187 21.0972 23.1187C22.2757 23.1187 23.3259 22.5611 24 21.6967C24.6741 22.5611 25.7243 23.1187 26.9028 23.1187C28.0813 23.1187 29.1315 22.5611 29.8056 21.6967C30.4797 22.5611 31.5299 23.1187 32.7084 23.1187C33.887 23.1187 34.9372 22.5611 35.6112 21.6967C36.2853 22.5611 37.3355 23.1187 38.514 23.1187C39.6926 23.1187 40.7428 22.5611 41.4168 21.6967C42.0909 22.5611 43.1411 23.1187 44.3197 23.1187C44.4778 23.1187 44.6333 23.1076 44.7862 23.0881V43.1273ZM44.3197 21.5636C43.1478 21.5636 42.1944 20.6102 42.1944 19.4383V12.3368H46.4449V19.4383C46.4449 20.6102 45.4916 21.5636 44.3197 21.5636Z" fill="#EE96A6"/>
<path d="M42.2461 24.8809H19.0236C18.5942 24.8809 18.2461 25.229 18.2461 25.6584V40.5871C18.2461 41.0165 18.5942 41.3647 19.0236 41.3647H42.2461C42.6755 41.3647 43.0236 41.0165 43.0236 40.5871V25.6584C43.0236 25.229 42.6755 24.8809 42.2461 24.8809ZM41.4686 39.8096H36.3886V37.2178H38.9286C39.358 37.2178 39.7061 36.8697 39.7061 36.4403C39.7061 36.0108 39.358 35.6627 38.9286 35.6627H32.2936C31.8642 35.6627 31.5161 36.0108 31.5161 36.4403C31.5161 36.8697 31.8642 37.2178 32.2936 37.2178H34.8336V39.8096H26.4362V37.2178H28.9761C29.4055 37.2178 29.7537 36.8697 29.7537 36.4403C29.7537 36.0108 29.4055 35.6627 28.9761 35.6627H22.3411C21.9117 35.6627 21.5636 36.0108 21.5636 36.4403C21.5636 36.8697 21.9117 37.2178 22.3411 37.2178H24.8811V39.8096H19.8012V26.4359H24.8811V27.4632C23.4547 27.8131 22.393 29.1019 22.393 30.6346C22.393 31.064 22.7411 31.4122 23.1705 31.4122H24.8811V31.464C24.8811 31.8934 25.2292 32.2415 25.6586 32.2415C26.088 32.2415 26.4362 31.8934 26.4362 31.464V31.4122H28.1467C28.5761 31.4122 28.9243 31.064 28.9243 30.6346C28.9243 29.1019 27.8626 27.8131 26.4362 27.4632V26.4359H34.8336V27.4632C33.4071 27.8131 32.3454 29.1019 32.3454 30.6346C32.3454 31.064 32.6936 31.4122 33.123 31.4122H34.8336V31.464C34.8336 31.8934 35.1817 32.2415 35.6111 32.2415C36.0405 32.2415 36.3886 31.8934 36.3886 31.464V31.4122H38.0992C38.5286 31.4122 38.8768 31.064 38.8768 30.6346C38.8768 29.1019 37.8151 27.8131 36.3886 27.4632V26.4359H41.4686V39.8096ZM25.6586 28.9241C26.3221 28.9241 26.8984 29.3037 27.1821 29.8571H24.1352C24.4187 29.3037 24.9951 28.9241 25.6586 28.9241ZM35.6111 28.9241C36.2746 28.9241 36.8509 29.3037 37.1346 29.8571H34.0876C34.3712 29.3037 34.9476 28.9241 35.6111 28.9241Z" fill="#EE96A6"/>
<path d="M13.218 35.5595C13.6474 35.5595 13.9955 35.2114 13.9955 34.782V33.1232C13.9955 32.6938 13.6474 32.3457 13.218 32.3457C12.7886 32.3457 12.4404 32.6938 12.4404 33.1232V34.782C12.4404 35.2114 12.7886 35.5595 13.218 35.5595Z" fill="#EE96A6"/>
</g>
<defs>
<clipPath id="clip0_85_441">
<rect width="48" height="48" fill="white"/>
</clipPath>
</defs>
</svg>
