<svg width="48" height="48" viewBox="0 0 48 48" fill="none" xmlns="http://www.w3.org/2000/svg">
<g clip-path="url(#clip0_85_422)">
<path d="M26.05 34H7.414L19.34 22.074L24 25.66L28.66 22.072L31.866 25.278C32.5065 24.9387 33.1791 24.6641 33.874 24.458L30.258 20.842L42 11.8V25.24C42.7108 25.5934 43.3813 26.0226 44 26.52V11C43.9979 10.205 43.6811 9.44316 43.119 8.88101C42.5568 8.31886 41.795 8.00211 41 8H7C6.205 8.00211 5.44316 8.31886 4.88101 8.88101C4.31886 9.44316 4.00211 10.205 4 11V33C4 33.7956 4.31607 34.5587 4.87868 35.1213C5.44129 35.6839 6.20435 36 7 36H26.05C26.02 35.67 26 35.338 26 35C26 34.662 26.02 34.33 26.05 34ZM6 32.586V11.802L17.742 20.842L6 32.586ZM41 10C41.018 10 41.032 10.01 41.05 10.01L24 23.14L6.95 10.01C6.968 10.01 6.982 10 7 10H41ZM37 26C34.6139 26.0026 32.3262 26.9517 30.639 28.639C28.9517 30.3262 28.0026 32.6139 28 35C28.0143 35.335 28.0477 35.6688 28.1 36C28.3409 38.1942 29.3815 40.2229 31.0232 41.6986C32.6649 43.1742 34.7926 43.9935 37 44H38V42H37C35.321 41.9953 33.6998 41.3864 32.4329 40.2847C31.1659 39.183 30.3378 37.6621 30.1 36C30.0424 35.6695 30.009 35.3353 30 35C29.9991 33.6218 30.4053 32.274 31.1676 31.1258C31.9299 29.9776 33.0143 29.0801 34.2848 28.546C35.5553 28.0119 36.9553 27.865 38.309 28.1237C39.6628 28.3823 40.9099 29.0351 41.894 30H40V31.026C39.1395 30.3645 38.0854 30.004 37 30C36.1804 29.9977 35.3729 30.1968 34.6484 30.58C33.9239 30.9631 33.3047 31.5185 32.8452 32.1972C32.3858 32.8759 32.1003 33.6571 32.0137 34.4721C31.9272 35.2871 32.0424 36.1109 32.349 36.8709C32.6557 37.6309 33.1445 38.3039 33.7724 38.8306C34.4003 39.3574 35.148 39.7217 35.9498 39.8915C36.7516 40.0613 37.5828 40.0314 38.3704 39.8045C39.1579 39.5775 39.8775 39.1605 40.466 38.59C40.8105 39.142 41.3255 39.5668 41.9329 39.8C42.5404 40.0333 43.2074 40.0622 43.8328 39.8825C44.4582 39.7028 45.008 39.3243 45.3991 38.8042C45.7901 38.2841 46.0011 37.6507 46 37V35C45.9715 32.6219 45.0141 30.3493 43.3324 28.6676C41.6507 26.9859 39.3781 26.0285 37 26ZM37 38C36.3816 37.998 35.779 37.8047 35.2748 37.4466C34.7706 37.0886 34.3896 36.5832 34.184 36C34.0656 35.6797 34.0033 35.3414 34 35C34 34.2044 34.3161 33.4413 34.8787 32.8787C35.4413 32.3161 36.2043 32 37 32C37.7957 32 38.5587 32.3161 39.1213 32.8787C39.6839 33.4413 40 34.2044 40 35C39.9967 35.3414 39.9344 35.6797 39.816 36C39.6104 36.5832 39.2294 37.0886 38.7252 37.4466C38.221 37.8047 37.6184 37.998 37 38ZM44 37C44 37.2652 43.8946 37.5196 43.7071 37.7071C43.5196 37.8946 43.2652 38 43 38C42.7348 38 42.4804 37.8946 42.2929 37.7071C42.1054 37.5196 42 37.2652 42 37V30.106C43.2566 31.429 43.9704 33.1756 44 35V37Z" fill="#EE96A6"/>
</g>
<defs>
<clipPath id="clip0_85_422">
<rect width="48" height="48" fill="white"/>
</clipPath>
</defs>
</svg>
