<svg width="48" height="48" viewBox="0 0 48 48" fill="none" xmlns="http://www.w3.org/2000/svg">
<g clip-path="url(#clip0_85_404)">
<path d="M33.9526 0H14.0477C11.7897 0 9.95264 1.83706 9.95264 4.09503V18.8859C9.95264 21.7464 10.0525 24.6442 10.2492 27.4987L11.5067 45.7312C11.5944 47.0035 12.6621 48 13.9373 48H34.0632C35.3383 48 36.4059 47.0035 36.4937 45.7312L37.7512 27.4987C37.9479 24.6447 38.0478 21.7469 38.0478 18.8859V4.09503C38.0477 1.83706 36.2106 0 33.9526 0ZM32.3457 46.4449H15.6546V44.7343C15.6546 44.7058 15.6778 44.6825 15.7064 44.6825H32.2939C32.3225 44.6825 32.3457 44.7058 32.3457 44.7343V46.4449ZM36.4926 18.8859C36.4926 21.7113 36.394 24.5731 36.1996 27.3918L34.9422 45.6244C34.9105 46.0845 34.5243 46.4449 34.063 46.4449H33.9008V44.7343C33.9008 43.8483 33.18 43.1274 32.2939 43.1274H15.7064C14.8203 43.1274 14.0995 43.8483 14.0995 44.7343V46.4449H13.9373C13.476 46.4449 13.0899 46.0845 13.0582 45.6244L11.8008 27.3918C11.6063 24.5726 11.5077 21.7108 11.5077 18.8859V4.09503C11.5077 2.69443 12.6472 1.55508 14.0477 1.55508H33.9526C35.3531 1.55508 36.4926 2.69443 36.4926 4.09503V18.8859Z" fill="#EE96A6"/>
<path d="M17.365 24.8813C16.0216 24.8813 14.9287 25.9743 14.9287 27.3176C14.9287 28.661 16.0216 29.7539 17.365 29.7539C18.7084 29.7539 19.8013 28.661 19.8013 27.3176C19.8013 25.9743 18.7084 24.8813 17.365 24.8813ZM17.365 28.1988C16.8791 28.1988 16.4838 27.8035 16.4838 27.3176C16.4838 26.8317 16.8791 26.4364 17.365 26.4364C17.8509 26.4364 18.2462 26.8317 18.2462 27.3176C18.2462 27.8035 17.8509 28.1988 17.365 28.1988Z" fill="#EE96A6"/>
<path d="M24.0002 24.8813C22.6569 24.8813 21.564 25.9743 21.564 27.3176C21.564 28.661 22.6569 29.7539 24.0002 29.7539C25.3436 29.7539 26.4365 28.661 26.4365 27.3176C26.4365 25.9743 25.3436 24.8813 24.0002 24.8813ZM24.0002 28.1988C23.5143 28.1988 23.119 27.8035 23.119 27.3176C23.119 26.8317 23.5143 26.4364 24.0002 26.4364C24.4862 26.4364 24.8815 26.8317 24.8815 27.3176C24.8815 27.8035 24.4862 28.1988 24.0002 28.1988Z" fill="#EE96A6"/>
<path d="M30.635 24.8813C29.2916 24.8813 28.1987 25.9743 28.1987 27.3176C28.1987 28.661 29.2916 29.7539 30.635 29.7539C31.9784 29.7539 33.0713 28.661 33.0713 27.3176C33.0713 25.9743 31.9784 24.8813 30.635 24.8813ZM30.635 28.1988C30.1491 28.1988 29.7538 27.8035 29.7538 27.3176C29.7538 26.8317 30.1491 26.4364 30.635 26.4364C31.1209 26.4364 31.5162 26.8317 31.5162 27.3176C31.5162 27.8035 31.1209 28.1988 30.635 28.1988Z" fill="#EE96A6"/>
<path d="M17.365 30.687C16.0216 30.687 14.9287 31.7799 14.9287 33.1233C14.9287 34.4667 16.0216 35.5596 17.365 35.5596C18.7084 35.5596 19.8013 34.4667 19.8013 33.1233C19.8013 31.7799 18.7084 30.687 17.365 30.687ZM17.365 34.0045C16.8791 34.0045 16.4838 33.6092 16.4838 33.1233C16.4838 32.6374 16.8791 32.2421 17.365 32.2421C17.8509 32.2421 18.2462 32.6374 18.2462 33.1233C18.2462 33.6092 17.8509 34.0045 17.365 34.0045Z" fill="#EE96A6"/>
<path d="M24.0002 30.687C22.6569 30.687 21.564 31.7799 21.564 33.1233C21.564 34.4667 22.6569 35.5596 24.0002 35.5596C25.3436 35.5596 26.4365 34.4667 26.4365 33.1233C26.4365 31.7799 25.3436 30.687 24.0002 30.687ZM24.0002 34.0045C23.5143 34.0045 23.119 33.6092 23.119 33.1233C23.119 32.6374 23.5143 32.2421 24.0002 32.2421C24.4862 32.2421 24.8815 32.6374 24.8815 33.1233C24.8815 33.6092 24.4862 34.0045 24.0002 34.0045Z" fill="#EE96A6"/>
<path d="M30.635 30.687C29.2916 30.687 28.1987 31.7799 28.1987 33.1233C28.1987 34.4667 29.2916 35.5596 30.635 35.5596C31.9784 35.5596 33.0713 34.4667 33.0713 33.1233C33.0713 31.7799 31.9784 30.687 30.635 30.687ZM30.635 34.0045C30.1491 34.0045 29.7538 33.6092 29.7538 33.1233C29.7538 32.6374 30.1491 32.2421 30.635 32.2421C31.1209 32.2421 31.5162 32.6374 31.5162 33.1233C31.5162 33.6092 31.1209 34.0045 30.635 34.0045Z" fill="#EE96A6"/>
<path d="M17.365 36.4927C16.0216 36.4927 14.9287 37.5856 14.9287 38.929C14.9287 40.2723 16.0216 41.3652 17.365 41.3652C18.7084 41.3652 19.8013 40.2723 19.8013 38.929C19.8013 37.5856 18.7084 36.4927 17.365 36.4927ZM17.365 39.8102C16.8791 39.8102 16.4838 39.4149 16.4838 38.929C16.4838 38.4431 16.8791 38.0478 17.365 38.0478C17.8509 38.0478 18.2462 38.4431 18.2462 38.929C18.2462 39.4149 17.8509 39.8102 17.365 39.8102Z" fill="#EE96A6"/>
<path d="M24.0002 36.4927C22.6569 36.4927 21.564 37.5856 21.564 38.929C21.564 40.2723 22.6569 41.3652 24.0002 41.3652C25.3436 41.3652 26.4365 40.2723 26.4365 38.929C26.4365 37.5856 25.3436 36.4927 24.0002 36.4927ZM24.0002 39.8102C23.5143 39.8102 23.119 39.4149 23.119 38.929C23.119 38.4431 23.5143 38.0478 24.0002 38.0478C24.4862 38.0478 24.8815 38.4431 24.8815 38.929C24.8815 39.4149 24.4862 39.8102 24.0002 39.8102Z" fill="#EE96A6"/>
<path d="M30.635 36.4927C29.2916 36.4927 28.1987 37.5856 28.1987 38.929C28.1987 40.2723 29.2916 41.3652 30.635 41.3652C31.9784 41.3652 33.0713 40.2723 33.0713 38.929C33.0713 37.5856 31.9784 36.4927 30.635 36.4927ZM30.635 39.8102C30.1491 39.8102 29.7538 39.4149 29.7538 38.929C29.7538 38.4431 30.1491 38.0478 30.635 38.0478C31.1209 38.0478 31.5162 38.4431 31.5162 38.929C31.5162 39.4149 31.1209 39.8102 30.635 39.8102Z" fill="#EE96A6"/>
<path d="M32.2938 5.80566H15.7063C14.3629 5.80566 13.27 6.89857 13.27 8.24195V19.8532C13.27 21.1966 14.3629 22.2895 15.7063 22.2895H32.2938C33.6372 22.2895 34.7301 21.1966 34.7301 19.8532V8.24195C34.7301 6.89857 33.6372 5.80566 32.2938 5.80566ZM18.2463 20.7344H15.7063C15.2204 20.7344 14.8251 20.3391 14.8251 19.8532V18.9694C14.8423 18.9705 14.8594 18.972 14.8769 18.972H18.2463V20.7344ZM23.2225 20.7344H19.8013V18.972H23.2225V20.7344ZM28.1987 20.7344H24.7776V18.972H28.1987V20.7344ZM33.175 19.8532C33.175 20.3391 32.7797 20.7344 32.2938 20.7344H29.7538V18.972H33.1232C33.1407 18.972 33.1578 18.9705 33.175 18.9694V19.8532ZM33.175 17.4195C33.1578 17.4183 33.1407 17.4169 33.1232 17.4169H14.8769C14.8594 17.4169 14.8423 17.4183 14.8251 17.4195V8.24195C14.8251 7.75604 15.2204 7.36074 15.7063 7.36074H32.2938C32.7797 7.36074 33.175 7.75604 33.175 8.24195V17.4195Z" fill="#EE96A6"/>
</g>
<defs>
<clipPath id="clip0_85_404">
<rect width="48" height="48" fill="white"/>
</clipPath>
</defs>
</svg>
