<svg width="60" height="60" viewBox="0 0 60 60" fill="none" xmlns="http://www.w3.org/2000/svg">
<path fill-rule="evenodd" clip-rule="evenodd" d="M30 50C41.0457 50 50 41.0457 50 30C50 18.9542 41.0457 10 30 10C18.9542 10 10 18.9542 10 30C10 41.0457 18.9542 50 30 50ZM55 30C55 43.8071 43.8071 55 30 55C16.1928 55 5.00001 43.8071 5.00001 30C5.00001 16.1928 16.1928 5.00001 30 5.00001C43.8071 5.00001 55 16.1928 55 30ZM30.7322 39.2678C29.7559 38.2915 29.7559 36.7085 30.7322 35.7322L33.9645 32.5H20C18.6193 32.5 17.5 31.3807 17.5 30C17.5 28.6193 18.6193 27.5 20 27.5H33.9645L30.7322 24.2678C29.7559 23.2915 29.7559 21.7085 30.7322 20.7322C31.7085 19.7559 33.2915 19.7559 34.2678 20.7322L41.7678 28.2322C42.7441 29.2085 42.7441 30.7915 41.7678 31.7678L34.2678 39.2678C33.2915 40.2441 31.7085 40.2441 30.7322 39.2678Z" fill="#064151"/>
</svg>
