<svg width="48" height="48" viewBox="0 0 48 48" fill="none" xmlns="http://www.w3.org/2000/svg">
<g clip-path="url(#clip0_85_452)">
<path d="M44.7343 22.808H41.739L26.1819 7.25094C26.3443 6.92468 26.4363 6.55727 26.4363 6.16871C26.4363 4.82533 25.3434 3.73242 24 3.73242C22.6566 3.73242 21.5637 4.82533 21.5637 6.16871C21.5637 6.55727 21.6557 6.92468 21.8181 7.25094L6.26105 22.808H3.26566C1.46498 22.808 0 24.273 0 26.0737V41.0024C0 42.8031 1.46498 44.2681 3.26566 44.2681H44.7343C46.535 44.2681 48 42.8031 48 41.0024V26.0737C48 24.273 46.535 22.808 44.7343 22.808ZM24 5.2875C24.4859 5.2875 24.8812 5.6828 24.8812 6.16871C24.8812 6.65462 24.4859 7.04992 24 7.04992C23.5141 7.04992 23.1188 6.65462 23.1188 6.16871C23.1188 5.6828 23.5141 5.2875 24 5.2875ZM22.9178 8.35058C23.244 8.51303 23.6114 8.60499 24 8.60499C24.3886 8.60499 24.756 8.51303 25.0822 8.35058L39.5397 22.808H8.46034L22.9178 8.35058ZM46.4449 41.0024C46.4449 41.9457 45.6775 42.713 44.7343 42.713H3.26566C2.32245 42.713 1.55508 41.9457 1.55508 41.0024V26.0737C1.55508 25.1304 2.32245 24.3631 3.26566 24.3631H44.7343C45.6775 24.3631 46.4449 25.1304 46.4449 26.0737V41.0024Z" fill="#EE96A6"/>
<path d="M10.3151 27.7842C8.28574 27.7842 6.63477 29.4352 6.63477 31.4645V35.6114C6.63477 37.6408 8.28574 39.2917 10.3151 39.2917C12.3445 39.2917 13.9955 37.6408 13.9955 35.6114V31.4645C13.9955 29.4352 12.3445 27.7842 10.3151 27.7842ZM12.4404 35.6114C12.4404 36.7833 11.487 37.7367 10.3151 37.7367C9.14321 37.7367 8.18984 36.7833 8.18984 35.6114V31.4645C8.18984 30.2926 9.14321 29.3393 10.3151 29.3393C11.487 29.3393 12.4404 30.2926 12.4404 31.4645V35.6114Z" fill="#EE96A6"/>
<path d="M19.4386 27.7842H16.5358C16.1064 27.7842 15.7583 28.1322 15.7583 28.5617V38.5142C15.7583 38.9437 16.1064 39.2917 16.5358 39.2917C16.9652 39.2917 17.3134 38.9437 17.3134 38.5142V35.1449H19.4386C21.468 35.1449 23.119 33.4939 23.119 31.4645C23.119 29.4352 21.468 27.7842 19.4386 27.7842ZM19.4386 33.5898H17.3134V29.3393H19.4386C20.6106 29.3393 21.5639 30.2926 21.5639 31.4645C21.5639 32.6364 20.6106 33.5898 19.4386 33.5898Z" fill="#EE96A6"/>
<path d="M30.6351 29.3393C31.0645 29.3393 31.4127 28.9912 31.4127 28.5617C31.4127 28.1322 31.0645 27.7842 30.6351 27.7842H25.6589C25.2295 27.7842 24.8813 28.1322 24.8813 28.5617V38.5142C24.8813 38.9437 25.2295 39.2917 25.6589 39.2917H30.6351C31.0645 39.2917 31.4127 38.9437 31.4127 38.5142C31.4127 38.0847 31.0645 37.7367 30.6351 37.7367H26.4364V34.3155H28.9764C29.4058 34.3155 29.7539 33.9675 29.7539 33.538C29.7539 33.1084 29.4058 32.7604 28.9764 32.7604H26.4364V29.3393H30.6351Z" fill="#EE96A6"/>
<path d="M39.7579 27.7843C39.3284 27.7843 38.9803 28.1323 38.9803 28.5618V35.6383L34.6239 28.1701C34.4469 27.8666 34.0884 27.7194 33.7494 27.8113C33.4102 27.903 33.1748 28.2106 33.1748 28.5618V38.5143C33.1748 38.9438 33.5229 39.2919 33.9523 39.2919C34.3818 39.2919 34.7299 38.9438 34.7299 38.5143V31.4379L39.0863 38.9061C39.2281 39.1492 39.4863 39.292 39.7579 39.292C39.8252 39.292 39.8935 39.2832 39.9608 39.2649C40.3 39.1732 40.5354 38.8656 40.5354 38.5143V28.5618C40.5354 28.1323 40.1873 27.7843 39.7579 27.7843Z" fill="#EE96A6"/>
</g>
<defs>
<clipPath id="clip0_85_452">
<rect width="48" height="48" fill="white"/>
</clipPath>
</defs>
</svg>
