<svg width="28" height="28" viewBox="0 0 28 28" fill="none" xmlns="http://www.w3.org/2000/svg">
<path d="M19.3669 6.79C18.5693 5.87956 18.1299 4.71034 18.1302 3.5H14.5252V17.9667C14.4974 18.7495 14.1669 19.4911 13.6032 20.0351C13.0396 20.5791 12.2869 20.8832 11.5035 20.8833C9.84685 20.8833 8.47018 19.53 8.47018 17.85C8.47018 15.8433 10.4068 14.3383 12.4018 14.9567V11.27C8.37685 10.7333 4.85352 13.86 4.85352 17.85C4.85352 21.735 8.07352 24.5 11.4918 24.5C15.1552 24.5 18.1302 21.525 18.1302 17.85V10.5117C19.592 11.5615 21.3471 12.1248 23.1469 12.1217V8.51667C23.1469 8.51667 20.9535 8.62167 19.3669 6.79Z" fill="#FFF5F7"/>
</svg>
