<svg width="45" height="44" viewBox="0 0 45 44" fill="none" xmlns="http://www.w3.org/2000/svg">
<path fill-rule="evenodd" clip-rule="evenodd" d="M4.18994 5.50008C4.18994 4.48756 5.01075 3.66675 6.02327 3.66675H11.5233C12.4282 3.66675 13.1977 4.32695 13.3353 5.22131L13.6602 7.33341H39.0233C39.5986 7.33341 40.1405 7.60345 40.4869 8.06272C40.8333 8.522 40.9441 9.11725 40.7861 9.6704L37.1194 22.5037C36.8945 23.2908 36.1752 23.8334 35.3566 23.8334H16.1987L16.7628 27.5001H37.1899C38.2025 27.5001 39.0233 28.3209 39.0233 29.3334C39.0233 30.3459 38.2025 31.1667 37.1899 31.1667H15.1899C14.2851 31.1667 13.5155 30.5065 13.3779 29.6122L12.2847 22.5065C12.243 22.3611 12.2188 22.2083 12.2146 22.0505L10.3104 9.67337C10.2687 9.52782 10.2444 9.37486 10.2402 9.21692L9.95042 7.33341H6.02327C5.01075 7.33341 4.18994 6.5126 4.18994 5.50008ZM14.2243 11.0001L15.6346 20.1667H33.9737L36.5928 11.0001H14.2243ZM11.5233 36.6667C11.5233 34.6417 13.1649 33.0001 15.1899 33.0001C17.215 33.0001 18.8566 34.6417 18.8566 36.6667C18.8566 38.6918 17.215 40.3334 15.1899 40.3334C13.1649 40.3334 11.5233 38.6918 11.5233 36.6667ZM31.6899 36.6667C31.6899 34.6417 33.3315 33.0001 35.3566 33.0001C37.3817 33.0001 39.0233 34.6417 39.0233 36.6667C39.0233 38.6918 37.3817 40.3334 35.3566 40.3334C33.3315 40.3334 31.6899 38.6918 31.6899 36.6667Z" fill="#064151"/>
</svg>
