<svg width="61" height="61" viewBox="0 0 61 61" fill="none" xmlns="http://www.w3.org/2000/svg">
<g clip-path="url(#clip0_178_475)">
<path d="M50.8984 35.3704H50.8556C51.7701 34.1714 52.5731 32.562 52.5414 30.6265C52.4985 28.0103 50.9346 25.4508 47.8933 23.019C48.2735 21.8771 48.3542 20.7514 48.1311 19.6485C47.2467 15.2791 42.5053 13.534 38.1544 12.5639C38.309 12.0503 38.3931 11.5062 38.3931 10.9428C38.3931 8.81052 37.2028 6.95117 35.452 5.9935C37.1939 2.45688 39.5164 2.06591 40.4506 2.06591C41.6408 2.06591 42.3892 2.32068 42.8222 2.55045C43.159 2.72915 43.5672 2.70038 43.8707 2.46971C44.4358 2.04012 44.363 1.17174 43.7363 0.838311C43.0391 0.467167 41.9796 0.12207 40.4506 0.12207C38.5872 0.12207 36.8396 0.979433 35.3966 2.60137C34.9108 3.14746 34.2086 4.06794 33.5954 5.36849C33.3215 5.32742 33.0412 5.30564 32.7559 5.30564C30.6419 5.30564 28.797 6.47597 27.8323 8.20223C27.4792 7.81203 27.0891 7.30158 26.8143 6.72387C26.6987 6.48089 26.4874 6.29674 26.231 6.21523C25.9745 6.13385 25.6957 6.16223 25.4611 6.29389C22.5554 7.92387 20.4339 10.0954 19.1553 12.7482C18.0618 15.0169 17.8596 17.1071 17.8559 18.3225C17.7737 18.3544 17.6923 18.3863 17.6163 18.4189C15.1006 19.4971 13.6499 21.5497 13.4208 24.3546C13.3293 25.4758 13.4559 26.4989 13.5911 27.2011C11.5891 27.9185 10.1968 29.2899 9.69473 31.0872C9.29845 32.5059 9.50294 34.0452 10.2052 35.3705H9.42972C9.13413 35.3705 8.85461 35.505 8.67007 35.7361C8.48566 35.9671 8.41646 36.2695 8.48191 36.5578L13.2986 57.7516C13.6158 59.1473 14.837 60.1221 16.2683 60.1221H44.0596C45.4908 60.1221 46.7121 59.1473 47.0293 57.7516L51.846 36.5578C51.9114 36.2695 51.8422 35.9671 51.6578 35.7361C51.4737 35.5049 51.1942 35.3704 50.8984 35.3704ZM32.7559 7.24948C34.7924 7.24948 36.4492 8.90628 36.4492 10.9428C36.4492 12.9793 34.7924 14.6361 32.7559 14.6361C30.7194 14.6361 29.0626 12.9793 29.0626 10.9428C29.0626 8.90628 30.7196 7.24948 32.7559 7.24948ZM16.2685 58.1781C15.7508 58.1781 15.3092 57.8255 15.1944 57.3207L10.6475 37.3142H13.7931L17.2678 57.6994C17.2961 57.8653 17.3358 58.0247 17.3842 58.1781H16.2685ZM19.7424 58.1781C19.5659 58.1781 19.2737 57.8982 19.1842 57.3728L15.7651 37.3142H18.9293L21.2397 57.6459C21.2608 57.8312 21.2917 58.009 21.3315 58.1781H19.7424ZM23.3921 58.1781C23.3244 58.0681 23.2169 57.8281 23.1713 57.4263L20.8857 37.3142H24.0623L25.2145 57.5912C25.2263 57.7996 25.2444 57.9951 25.2685 58.1781H23.3921ZM29.1922 58.1781H27.2383C27.205 58.0116 27.1722 57.7817 27.1551 57.481L26.0093 37.3142H29.1245C29.1256 37.3142 29.1268 37.3145 29.128 37.3145C29.1296 37.3145 29.1312 37.3142 29.1329 37.3142H29.1922V58.1781ZM33.1732 57.481C33.1561 57.7817 33.1233 58.0117 33.09 58.1781H31.1361V37.3142H34.319L33.1732 57.481ZM36.9364 58.1781H35.0598C35.084 57.9952 35.102 57.7997 35.1138 57.5912L36.266 37.3142H39.4427L37.1572 57.4263C37.1116 57.8281 37.0041 58.0681 36.9364 58.1781ZM40.586 58.1781H38.9968C39.0367 58.009 39.0676 57.8312 39.0887 57.6459L41.399 37.3142H44.5632L41.1441 57.3728C41.0547 57.8982 40.7625 58.1781 40.586 58.1781ZM45.1339 57.3207C45.0192 57.8256 44.5775 58.1781 44.0598 58.1781H42.944C42.9923 58.0247 43.0321 57.8653 43.0604 57.6994L46.5352 37.3142H48.5951C48.5959 37.3142 48.5967 37.3143 48.5976 37.3143C48.5986 37.3143 48.5995 37.3142 48.6006 37.3142H49.681L45.1339 57.3207ZM48.2286 35.3704H33.3259C35.5111 34.2286 38.3418 32.6285 41.0091 30.7572C41.4485 30.449 41.5548 29.8429 41.2465 29.4034C40.9382 28.964 40.3321 28.8577 39.8927 29.166C35.263 32.4142 29.9619 34.8937 28.9179 35.3704H12.5695C11.6037 34.3276 11.2103 32.888 11.5672 31.6099C11.9712 30.1631 13.2762 29.15 15.2417 28.7568C17.0878 28.3876 21.9693 27.3598 27.4145 25.7941C27.9303 25.6457 28.2283 25.1073 28.08 24.5914C27.9316 24.0756 27.3937 23.7773 26.8772 23.9259C22.0236 25.3216 17.6246 26.2841 15.4745 26.7261C15.1774 25.1263 14.9811 21.6631 18.3821 20.2054C19.6948 19.6429 22.3548 19.1585 25.1711 18.6457L26.1119 18.474C26.6398 18.3771 26.9893 17.8706 26.8924 17.3427C26.7955 16.8146 26.289 16.4652 25.7611 16.5622L24.8229 16.7335C23.0043 17.0646 21.2489 17.3844 19.8166 17.7347C19.9488 15.4699 20.9081 11.47 25.5874 8.48279C25.9386 9.00736 26.3161 9.43941 26.6161 9.74874C26.8255 9.96464 27.0042 10.1338 27.1604 10.2696C27.134 10.4906 27.1188 10.715 27.1188 10.943C27.1188 14.0514 29.6476 16.5802 32.7559 16.5802C34.5825 16.5802 36.2083 15.7062 37.2391 14.3553C39.156 14.7629 40.7421 15.2345 42.0231 15.7854C42.2661 16.1531 42.2328 16.4173 42.1655 16.6284C41.9241 17.3848 40.4184 19.4648 31.6726 22.4328C31.1643 22.6053 30.8921 23.1572 31.0645 23.6655C31.2019 24.0703 31.5798 24.3253 31.9849 24.3253C32.0884 24.3253 32.1938 24.3086 32.2973 24.2735C35.4321 23.2097 37.9751 22.1473 39.8559 21.1159C42.236 19.8106 43.5974 18.5359 44.0175 17.2193C44.0485 17.1222 44.0732 17.0253 44.094 16.9283C45.2889 17.7961 45.9801 18.8194 46.2261 20.0344C46.5836 21.8007 45.7807 23.7509 43.8398 25.8308C43.4736 26.2232 43.4949 26.8382 43.8874 27.2044C44.0748 27.3792 44.3127 27.4658 44.5503 27.4658C44.8102 27.4658 45.0696 27.3621 45.2611 27.157C45.987 26.3791 46.5808 25.6046 47.0433 24.8358C49.3707 26.7895 50.5668 28.7469 50.5981 30.6586C50.6327 32.7798 49.2321 34.4494 48.2286 35.3704Z" fill="url(#paint0_linear_178_475)"/>
</g>
<defs>
<linearGradient id="paint0_linear_178_475" x1="16.3999" y1="7.92207" x2="45.4999" y2="63.1221" gradientUnits="userSpaceOnUse">
<stop offset="0.1" stop-color="#3594AD"/>
<stop offset="0.565" stop-color="#8BB7A0"/>
<stop offset="1" stop-color="#FBE58E"/>
</linearGradient>
<clipPath id="clip0_178_475">
<rect width="60" height="60" fill="white" transform="translate(0.5 0.12207)"/>
</clipPath>
</defs>
</svg>
