<svg width="61" height="61" viewBox="0 0 61 61" fill="none" xmlns="http://www.w3.org/2000/svg">
<g clip-path="url(#clip0_178_488)">
<path d="M50.1977 40.6836C49.1616 40.6836 48.3186 41.5266 48.3186 42.5626C48.3186 43.5987 49.1616 44.4417 50.1977 44.4417C51.2337 44.4417 52.0767 43.5987 52.0767 42.5626C52.0767 41.5266 51.2337 40.6836 50.1977 40.6836Z" fill="url(#paint0_linear_178_488)"/>
<path d="M12.8759 40.6836C11.8398 40.6836 10.9968 41.5266 10.9968 42.5626C10.9968 43.5987 11.8398 44.4417 12.8759 44.4417C13.912 44.4417 14.7549 43.5987 14.7549 42.5626C14.7549 41.5266 13.912 40.6836 12.8759 40.6836Z" fill="url(#paint1_linear_178_488)"/>
<path d="M58.0759 28.413L50.9268 25.2356L45.6937 13.8972C45.0289 12.4566 43.574 11.5259 41.9874 11.5259H3.54536C1.86614 11.5259 0.5 12.892 0.5 14.5712V40.4892C0.5 42.1685 1.86614 43.5346 3.54536 43.5346H6.79781C7.26524 46.4685 9.81246 48.7182 12.8758 48.7182C15.9392 48.7182 18.4864 46.4685 18.9539 43.5346H44.1196C44.587 46.4685 47.1342 48.7182 50.1976 48.7182C53.261 48.7182 55.8082 46.4685 56.2756 43.5346H57.4546C59.1339 43.5346 60.5 42.1685 60.5 40.4892V32.1432C60.5001 30.5317 59.5485 29.0674 58.0759 28.413ZM45.748 18.6533L48.6787 25.0032H39.7657V18.6533H45.748ZM12.8758 46.7743C10.5536 46.7743 8.66416 44.8849 8.66416 42.5627C8.66416 40.2403 10.5536 38.351 12.8758 38.351C15.1981 38.351 17.0875 40.2403 17.0875 42.5627C17.0875 44.8849 15.1981 46.7743 12.8758 46.7743ZM50.1977 46.7743C47.8755 46.7743 45.9861 44.885 45.9861 42.5627C45.9861 40.2403 47.8755 38.351 50.1977 38.351C52.52 38.351 54.4094 40.2403 54.4094 42.5627C54.4094 44.8849 52.52 46.7743 50.1977 46.7743ZM58.5563 37.4439H57.4548C56.918 37.4439 56.4828 37.8789 56.4828 38.4158C56.4828 38.9527 56.918 39.3877 57.4548 39.3877H58.5563V40.4892C58.5563 41.0966 58.0621 41.5907 57.4548 41.5907H56.2758C55.8083 38.6568 53.2611 36.4071 50.1977 36.4071C47.1343 36.4071 44.5871 38.6568 44.1197 41.5907H18.9539C18.4864 38.6568 15.9392 36.4071 12.8758 36.4071C9.81246 36.4071 7.26524 38.6568 6.79781 41.5907H3.54536C2.93797 41.5907 2.44385 41.0966 2.44385 40.4892V39.3877H5.6188C6.15556 39.3877 6.59073 38.9527 6.59073 38.4158C6.59073 37.8789 6.15556 37.4439 5.6188 37.4439H2.44385V14.5712C2.44385 13.9639 2.93797 13.4697 3.54536 13.4697H41.9874C42.8185 13.4697 43.5806 13.9574 43.9288 14.7118L44.8508 16.7095H35.6837C34.5761 16.7095 33.675 17.6105 33.675 18.7181V22.865C33.675 25.1158 35.5062 26.9471 37.7571 26.9471H49.9916L56.0272 29.6296L55.8743 29.7224C54.9708 30.2709 54.4094 31.2684 54.4094 32.3254V34.2689C54.4094 34.8058 54.8446 35.2408 55.3813 35.2408H58.5563V37.4439ZM37.8219 18.6533V25.0032H37.7571C36.5781 25.0032 35.6189 24.044 35.6189 22.865V18.7181C35.6189 18.6825 35.6479 18.6533 35.6837 18.6533H37.8219ZM58.5563 33.297H56.3532V32.3256C56.3532 31.9433 56.5563 31.5825 56.883 31.384L57.9996 30.7061C58.3504 31.0925 58.5563 31.6017 58.5563 32.1431V33.297Z" fill="url(#paint2_linear_178_488)"/>
<path d="M42.9406 37.4438H20.1328C19.5961 37.4438 19.1609 37.8789 19.1609 38.4158C19.1609 38.9527 19.5961 39.3877 20.1328 39.3877H42.9406C43.4774 39.3877 43.9126 38.9527 43.9126 38.4158C43.9126 37.8789 43.4774 37.4438 42.9406 37.4438Z" fill="url(#paint3_linear_178_488)"/>
<path d="M15.9859 15.6729C15.4492 15.6729 15.014 16.1079 15.014 16.6448V20.8564H13.8477V16.6448C13.8477 16.1079 13.4125 15.6729 12.8758 15.6729C12.339 15.6729 11.9039 16.1079 11.9039 16.6448V20.8564H10.7375V16.6448C10.7375 16.1079 10.3024 15.6729 9.76563 15.6729C9.22886 15.6729 8.7937 16.1079 8.7937 16.6448V22.8651C8.7937 24.5443 10.1598 25.9105 11.8391 25.9105H11.9039V34.269C11.9039 34.8059 12.339 35.2409 12.8758 35.2409C13.4125 35.2409 13.8477 34.8059 13.8477 34.269V25.9105H13.9125C15.5917 25.9105 16.9579 24.5443 16.9579 22.8651V16.6448C16.9579 16.1079 16.5227 15.6729 15.9859 15.6729ZM15.014 22.8651C15.014 23.4725 14.5199 23.9666 13.9125 23.9666H11.8391C11.2317 23.9666 10.7375 23.4725 10.7375 22.8651V22.8003H15.014V22.8651Z" fill="url(#paint4_linear_178_488)"/>
<path d="M20.1328 35.2409C20.6696 35.2409 21.1047 34.8059 21.1047 34.269V30.0573H23.0558C23.6474 30.0573 24.2061 29.7984 24.5885 29.347C24.9709 28.8957 25.1343 28.3022 25.0371 27.7185L23.3209 17.4206C23.1521 16.4079 22.2844 15.6729 21.2525 15.6729C20.0991 15.6729 19.1609 16.6111 19.1609 17.7644V34.269C19.1609 34.8059 19.5961 35.2409 20.1328 35.2409ZM21.1047 17.7644C21.1047 17.683 21.171 17.6167 21.2578 17.6167C21.3304 17.6167 21.3916 17.6685 21.4036 17.7402L23.1199 28.0381C23.1212 28.0462 23.1248 28.0677 23.1055 28.0905C23.0859 28.1135 23.0641 28.1135 23.0558 28.1135H21.1047V17.7644Z" fill="url(#paint5_linear_178_488)"/>
</g>
<defs>
<linearGradient id="paint0_linear_178_488" x1="48.9956" y1="41.1721" x2="50.4838" y2="45.0141" gradientUnits="userSpaceOnUse">
<stop offset="0.1" stop-color="#3594AD"/>
<stop offset="0.565" stop-color="#8BB7A0"/>
<stop offset="1" stop-color="#FBE58E"/>
</linearGradient>
<linearGradient id="paint1_linear_178_488" x1="11.6739" y1="41.1721" x2="13.162" y2="45.0141" gradientUnits="userSpaceOnUse">
<stop offset="0.1" stop-color="#3594AD"/>
<stop offset="0.565" stop-color="#8BB7A0"/>
<stop offset="1" stop-color="#FBE58E"/>
</linearGradient>
<linearGradient id="paint2_linear_178_488" x1="11.3094" y1="16.3609" x2="21.2358" y2="57.7038" gradientUnits="userSpaceOnUse">
<stop offset="0.1" stop-color="#3594AD"/>
<stop offset="0.565" stop-color="#8BB7A0"/>
<stop offset="1" stop-color="#FBE58E"/>
</linearGradient>
<linearGradient id="paint3_linear_178_488" x1="23.62" y1="37.6965" x2="23.6895" y2="39.9798" gradientUnits="userSpaceOnUse">
<stop offset="0.1" stop-color="#3594AD"/>
<stop offset="0.565" stop-color="#8BB7A0"/>
<stop offset="1" stop-color="#FBE58E"/>
</linearGradient>
<linearGradient id="paint4_linear_178_488" x1="10.2645" y1="18.2167" x2="21.7357" y2="30.5729" gradientUnits="userSpaceOnUse">
<stop offset="0.1" stop-color="#3594AD"/>
<stop offset="0.565" stop-color="#8BB7A0"/>
<stop offset="1" stop-color="#FBE58E"/>
</linearGradient>
<linearGradient id="paint5_linear_178_488" x1="20.2245" y1="18.2167" x2="31.3774" y2="26.9039" gradientUnits="userSpaceOnUse">
<stop offset="0.1" stop-color="#3594AD"/>
<stop offset="0.565" stop-color="#8BB7A0"/>
<stop offset="1" stop-color="#FBE58E"/>
</linearGradient>
<clipPath id="clip0_178_488">
<rect width="60" height="60" fill="white" transform="translate(0.5 0.12207)"/>
</clipPath>
</defs>
</svg>
