<svg width="29" height="29" viewBox="0 0 29 29" fill="none" xmlns="http://www.w3.org/2000/svg">
<path fill-rule="evenodd" clip-rule="evenodd" d="M14.4999 4.78866C9.34526 4.78866 5.16659 8.96733 5.16659 14.122C5.16659 19.2767 9.34526 23.4553 14.4999 23.4553C19.6546 23.4553 23.8333 19.2767 23.8333 14.122C23.8333 8.96733 19.6546 4.78866 14.4999 4.78866ZM2.83325 14.122C2.83325 7.67867 8.0566 2.45532 14.4999 2.45532C20.9433 2.45532 26.1666 7.67867 26.1666 14.122C26.1666 20.5654 20.9433 25.7887 14.4999 25.7887C8.0566 25.7887 2.83325 20.5654 2.83325 14.122ZM11.0717 11.2062C11.4602 9.69684 12.829 8.58032 14.4614 8.58032C16.3945 8.58032 17.9614 10.1473 17.9614 12.0803C17.9614 13.167 17.4312 13.8879 16.8758 14.4239C16.6508 14.641 16.3946 14.8533 16.1643 15.0442C16.1303 15.0724 16.0969 15.1001 16.0643 15.1272C15.7954 15.3508 15.5382 15.5701 15.2864 15.8219C14.8308 16.2776 14.0921 16.2776 13.6365 15.8219C13.1808 15.3663 13.1808 14.6276 13.6365 14.172C13.968 13.8405 14.2941 13.5646 14.5721 13.3334C14.609 13.3027 14.6445 13.2732 14.6789 13.2447C14.9176 13.0465 15.0986 12.8962 15.2554 12.745C15.575 12.4365 15.6281 12.2824 15.6281 12.0803C15.6281 11.436 15.1058 10.9137 14.4614 10.9137C13.9194 10.9137 13.461 11.2844 13.3314 11.7878C13.1708 12.4118 12.5348 12.7874 11.9108 12.6268C11.2868 12.4662 10.9111 11.8302 11.0717 11.2062ZM14.4731 19.6637H14.4614C13.8171 19.6637 13.2948 19.1413 13.2948 18.497C13.2948 17.8527 13.8171 17.3303 14.4614 17.3303H14.4731C15.1174 17.3303 15.6398 17.8527 15.6398 18.497C15.6398 19.1413 15.1174 19.6637 14.4731 19.6637Z" fill="#EE96A6"/>
</svg>
