<svg width="28" height="29" viewBox="0 0 28 29" fill="none" xmlns="http://www.w3.org/2000/svg">
<path d="M9.09992 2.45538H18.8999C22.6333 2.45538 25.6666 5.48872 25.6666 9.22205V19.0221C25.6666 20.8167 24.9537 22.5378 23.6847 23.8068C22.4157 25.0758 20.6946 25.7887 18.8999 25.7887H9.09992C5.36659 25.7887 2.33325 22.7554 2.33325 19.0221V9.22205C2.33325 7.42742 3.04617 5.70629 4.31516 4.43729C5.58416 3.1683 7.30529 2.45538 9.09992 2.45538ZM8.86659 4.78872C7.75268 4.78872 6.68439 5.23122 5.89674 6.01887C5.10908 6.80652 4.66659 7.87481 4.66659 8.98872V19.2554C4.66659 21.5771 6.54492 23.4554 8.86659 23.4554H19.1333C20.2472 23.4554 21.3155 23.0129 22.1031 22.2252C22.8908 21.4376 23.3333 20.3693 23.3333 19.2554V8.98872C23.3333 6.66705 21.4549 4.78872 19.1333 4.78872H8.86659ZM20.1249 6.53872C20.5117 6.53872 20.8826 6.69236 21.1561 6.96585C21.4296 7.23934 21.5833 7.61028 21.5833 7.99705C21.5833 8.38382 21.4296 8.75476 21.1561 9.02825C20.8826 9.30174 20.5117 9.45538 20.1249 9.45538C19.7381 9.45538 19.3672 9.30174 19.0937 9.02825C18.8202 8.75476 18.6666 8.38382 18.6666 7.99705C18.6666 7.61028 18.8202 7.23934 19.0937 6.96585C19.3672 6.69236 19.7381 6.53872 20.1249 6.53872ZM13.9999 8.28872C15.547 8.28872 17.0307 8.9033 18.1247 9.99726C19.2187 11.0912 19.8333 12.575 19.8333 14.1221C19.8333 15.6691 19.2187 17.1529 18.1247 18.2468C17.0307 19.3408 15.547 19.9554 13.9999 19.9554C12.4528 19.9554 10.9691 19.3408 9.87513 18.2468C8.78117 17.1529 8.16659 15.6691 8.16659 14.1221C8.16659 12.575 8.78117 11.0912 9.87513 9.99726C10.9691 8.9033 12.4528 8.28872 13.9999 8.28872ZM13.9999 10.6221C13.0717 10.6221 12.1814 10.9908 11.525 11.6472C10.8687 12.3036 10.4999 13.1938 10.4999 14.1221C10.4999 15.0503 10.8687 15.9405 11.525 16.5969C12.1814 17.2533 13.0717 17.6221 13.9999 17.6221C14.9282 17.6221 15.8184 17.2533 16.4748 16.5969C17.1312 15.9405 17.4999 15.0503 17.4999 14.1221C17.4999 13.1938 17.1312 12.3036 16.4748 11.6472C15.8184 10.9908 14.9282 10.6221 13.9999 10.6221Z" fill="#064151"/>
</svg>
