<svg width="45" height="44" viewBox="0 0 45 44" fill="none" xmlns="http://www.w3.org/2000/svg">
<path fill-rule="evenodd" clip-rule="evenodd" d="M5.97681 11.0001C5.97681 9.98756 6.79762 9.16675 7.81014 9.16675H37.1435C38.156 9.16675 38.9768 9.98756 38.9768 11.0001C38.9768 12.0126 38.156 12.8334 37.1435 12.8334H7.81014C6.79762 12.8334 5.97681 12.0126 5.97681 11.0001ZM5.97681 22.0001C5.97681 20.9876 6.79762 20.1667 7.81014 20.1667H37.1435C38.156 20.1667 38.9768 20.9876 38.9768 22.0001C38.9768 23.0126 38.156 23.8334 37.1435 23.8334H7.81014C6.79762 23.8334 5.97681 23.0126 5.97681 22.0001ZM5.97681 33.0001C5.97681 31.9876 6.79762 31.1667 7.81014 31.1667H37.1435C38.156 31.1667 38.9768 31.9876 38.9768 33.0001C38.9768 34.0126 38.156 34.8334 37.1435 34.8334H7.81014C6.79762 34.8334 5.97681 34.0126 5.97681 33.0001Z" fill="#064151"/>
</svg>
