<svg width="44" height="44" viewBox="0 0 44 44" fill="none" xmlns="http://www.w3.org/2000/svg">
<path fill-rule="evenodd" clip-rule="evenodd" d="M22.0001 7.33341C13.8999 7.33341 7.33341 13.8999 7.33341 22.0001C7.33341 30.1003 13.8999 36.6667 22.0001 36.6667C30.1003 36.6667 36.6667 30.1003 36.6667 22.0001C36.6667 13.8999 30.1003 7.33341 22.0001 7.33341ZM3.66675 22.0001C3.66675 11.8749 11.8749 3.66675 22.0001 3.66675C32.1254 3.66675 40.3334 11.8749 40.3334 22.0001C40.3334 32.1254 32.1254 40.3334 22.0001 40.3334C11.8749 40.3334 3.66675 32.1254 3.66675 22.0001ZM21.4631 15.2037C22.1791 15.9197 22.1791 17.0805 21.4631 17.7964L19.0928 20.1667H29.3334C30.3459 20.1667 31.1667 20.9876 31.1667 22.0001C31.1667 23.0126 30.3459 23.8334 29.3334 23.8334H19.0928L21.4631 26.2037C22.1791 26.9197 22.1791 28.0805 21.4631 28.7964C20.7471 29.5124 19.5863 29.5124 18.8704 28.7964L13.3704 23.2964C12.6544 22.5805 12.6544 21.4197 13.3704 20.7037L18.8704 15.2037C19.5863 14.4878 20.7471 14.4878 21.4631 15.2037Z" fill="#064151"/>
</svg>
