<svg width="49" height="49" viewBox="0 0 49 49" fill="none" xmlns="http://www.w3.org/2000/svg">
<path d="M33.7001 11.7621C32.3329 10.2013 31.5795 8.19693 31.5801 6.12207H25.4001V30.9221C25.3524 32.2641 24.7858 33.5353 23.8196 34.4679C22.8534 35.4006 21.563 35.9219 20.2201 35.9221C17.3801 35.9221 15.0201 33.6021 15.0201 30.7221C15.0201 27.2821 18.3401 24.7021 21.7601 25.7621V19.4421C14.8601 18.5221 8.82007 23.8821 8.82007 30.7221C8.82007 37.3821 14.3401 42.1221 20.2001 42.1221C26.4801 42.1221 31.5801 37.0221 31.5801 30.7221V18.1421C34.0861 19.9418 37.0948 20.9074 40.1801 20.9021V14.7221C40.1801 14.7221 36.4201 14.9021 33.7001 11.7621Z" fill="#FFF5F7"/>
</svg>
