<svg width="61" height="61" viewBox="0 0 61 61" fill="none" xmlns="http://www.w3.org/2000/svg">
<g clip-path="url(#clip0_178_508)">
<path d="M58.4914 22.9298H58.4266V12.4978C58.4266 10.247 56.5953 8.41577 54.3445 8.41577H4.58207C2.33123 8.41577 0.5 10.247 0.5 12.4978V47.7462C0.5 49.9971 2.33123 51.8283 4.58207 51.8283H54.3445C56.5953 51.8283 58.4266 49.9971 58.4266 47.7462V37.3143H58.4914C59.599 37.3143 60.5 36.4132 60.5 35.3056V24.9384C60.5 23.8308 59.599 22.9298 58.4914 22.9298ZM56.4827 47.7462C56.4827 48.9252 55.5235 49.8845 54.3445 49.8845H4.58207C3.40307 49.8845 2.44384 48.9252 2.44384 47.7462V47.6816H4.58285C5.11961 47.6816 5.55477 47.2465 5.55477 46.7096C5.55477 46.1727 5.11961 45.7377 4.58285 45.7377H2.44384V14.5065H4.58207C5.11883 14.5065 5.554 14.0715 5.554 13.5346C5.554 12.9977 5.11883 12.5626 4.58207 12.5626H2.44384V12.4978C2.44384 11.3188 3.40307 10.3596 4.58207 10.3596H54.3445C55.5235 10.3596 56.4827 11.3188 56.4827 12.4978V22.9298H43.9773C40.0115 22.9298 36.7851 26.1562 36.7851 30.122C36.7851 34.0879 40.0115 37.3143 43.9773 37.3143H56.4827V47.7462ZM58.5562 35.3056C58.5562 35.3413 58.5271 35.3704 58.4914 35.3704H57.4571C57.4562 35.3704 57.4554 35.3703 57.4546 35.3703C57.4539 35.3703 57.453 35.3704 57.4522 35.3704H43.9773C41.0833 35.3704 38.7289 33.016 38.7289 30.122C38.7289 27.228 41.0833 24.8737 43.9773 24.8737H57.4496C57.4513 24.8737 57.453 24.8739 57.4546 24.8739C57.4563 24.8739 57.458 24.8737 57.4597 24.8737H58.4914C58.5271 24.8737 58.5562 24.9028 58.5562 24.9384V35.3056Z" fill="url(#paint0_linear_178_508)"/>
<path d="M43.9772 27.0767C42.298 27.0767 40.9319 28.4428 40.9319 30.122C40.9319 31.8012 42.298 33.1674 43.9772 33.1674C45.6565 33.1674 47.0226 31.8012 47.0226 30.122C47.0226 28.4428 45.6565 27.0767 43.9772 27.0767ZM43.9772 31.2235C43.3699 31.2235 42.8757 30.7294 42.8757 30.122C42.8757 29.5146 43.3699 29.0205 43.9772 29.0205C44.5846 29.0205 45.0788 29.5146 45.0788 30.122C45.0788 30.7294 44.5846 31.2235 43.9772 31.2235Z" fill="url(#paint1_linear_178_508)"/>
<path d="M8.729 14.5066H11.8392C12.3759 14.5066 12.8111 14.0716 12.8111 13.5347C12.8111 12.9978 12.3759 12.5627 11.8392 12.5627H8.729C8.19224 12.5627 7.75708 12.9978 7.75708 13.5347C7.75708 14.0716 8.19224 14.5066 8.729 14.5066Z" fill="url(#paint2_linear_178_508)"/>
<path d="M15.9858 14.5066H19.096C19.6327 14.5066 20.0679 14.0716 20.0679 13.5347C20.0679 12.9978 19.6327 12.5627 19.096 12.5627H15.9858C15.4491 12.5627 15.0139 12.9978 15.0139 13.5347C15.0139 14.0716 15.4491 14.5066 15.9858 14.5066Z" fill="url(#paint3_linear_178_508)"/>
<path d="M23.2429 14.5066H26.3531C26.8898 14.5066 27.325 14.0716 27.325 13.5347C27.325 12.9978 26.8898 12.5627 26.3531 12.5627H23.2429C22.7062 12.5627 22.271 12.9978 22.271 13.5347C22.271 14.0716 22.7062 14.5066 23.2429 14.5066Z" fill="url(#paint4_linear_178_508)"/>
<path d="M30.5 14.5066H33.6102C34.1469 14.5066 34.5821 14.0716 34.5821 13.5347C34.5821 12.9978 34.1469 12.5627 33.6102 12.5627H30.5C29.9632 12.5627 29.5281 12.9978 29.5281 13.5347C29.5281 14.0716 29.9632 14.5066 30.5 14.5066Z" fill="url(#paint5_linear_178_508)"/>
<path d="M37.7571 14.5066H40.8672C41.404 14.5066 41.8391 14.0716 41.8391 13.5347C41.8391 12.9978 41.404 12.5627 40.8672 12.5627H37.7571C37.2203 12.5627 36.7852 12.9978 36.7852 13.5347C36.7852 14.0716 37.2203 14.5066 37.7571 14.5066Z" fill="url(#paint6_linear_178_508)"/>
<path d="M45.0139 14.5066H48.1241C48.6608 14.5066 49.096 14.0716 49.096 13.5347C49.096 12.9978 48.6608 12.5627 48.1241 12.5627H45.0139C44.4772 12.5627 44.042 12.9978 44.042 13.5347C44.042 14.0716 44.4772 14.5066 45.0139 14.5066Z" fill="url(#paint7_linear_178_508)"/>
<path d="M52.271 14.5066H52.3358V14.5714C52.3358 15.1083 52.771 15.5433 53.3077 15.5433C53.8445 15.5433 54.2796 15.1083 54.2796 14.5714V13.5347C54.2796 12.9978 53.8445 12.5627 53.3077 12.5627H52.271C51.7342 12.5627 51.2991 12.9978 51.2991 13.5347C51.2991 14.0716 51.7342 14.5066 52.271 14.5066Z" fill="url(#paint8_linear_178_508)"/>
<path d="M53.3079 17.7463C52.7711 17.7463 52.3359 18.1814 52.3359 18.7183V20.7917C52.3359 21.3286 52.7711 21.7636 53.3079 21.7636C53.8446 21.7636 54.2798 21.3286 54.2798 20.7917V18.7183C54.2798 18.1814 53.8446 17.7463 53.3079 17.7463Z" fill="url(#paint9_linear_178_508)"/>
<path d="M11.8399 45.7378H8.72973C8.19297 45.7378 7.75781 46.1728 7.75781 46.7097C7.75781 47.2466 8.19297 47.6816 8.72973 47.6816H11.8399C12.3766 47.6816 12.8118 47.2466 12.8118 46.7097C12.8118 46.1728 12.3766 45.7378 11.8399 45.7378Z" fill="url(#paint10_linear_178_508)"/>
<path d="M19.097 45.7378H15.9868C15.4501 45.7378 15.0149 46.1728 15.0149 46.7097C15.0149 47.2466 15.4501 47.6816 15.9868 47.6816H19.097C19.6337 47.6816 20.0689 47.2466 20.0689 46.7097C20.0689 46.1728 19.6337 45.7378 19.097 45.7378Z" fill="url(#paint11_linear_178_508)"/>
<path d="M26.3538 45.7378H23.2437C22.7069 45.7378 22.2717 46.1728 22.2717 46.7097C22.2717 47.2466 22.7069 47.6816 23.2437 47.6816H26.3538C26.8906 47.6816 27.3257 47.2466 27.3257 46.7097C27.3257 46.1728 26.8906 45.7378 26.3538 45.7378Z" fill="url(#paint12_linear_178_508)"/>
<path d="M33.6109 45.7378H30.5007C29.964 45.7378 29.5288 46.1728 29.5288 46.7097C29.5288 47.2466 29.964 47.6816 30.5007 47.6816H33.6109C34.1476 47.6816 34.5828 47.2466 34.5828 46.7097C34.5828 46.1728 34.1476 45.7378 33.6109 45.7378Z" fill="url(#paint13_linear_178_508)"/>
<path d="M40.868 45.7378H37.7578C37.2211 45.7378 36.7859 46.1728 36.7859 46.7097C36.7859 47.2466 37.2211 47.6816 37.7578 47.6816H40.868C41.4047 47.6816 41.8399 47.2466 41.8399 46.7097C41.8399 46.1728 41.4047 45.7378 40.868 45.7378Z" fill="url(#paint14_linear_178_508)"/>
<path d="M45.0149 47.6816H48.125C48.6618 47.6816 49.097 47.2466 49.097 46.7097C49.097 46.1728 48.6618 45.7378 48.125 45.7378H45.0149C44.4781 45.7378 44.043 46.1728 44.043 46.7097C44.043 47.2466 44.4781 47.6816 45.0149 47.6816Z" fill="url(#paint15_linear_178_508)"/>
<path d="M52.2717 47.6815H53.3084C53.8452 47.6815 54.2804 47.2465 54.2804 46.7096V45.6729C54.2804 45.136 53.8452 44.7009 53.3084 44.7009C52.7717 44.7009 52.3365 45.136 52.3365 45.6729V45.7376H52.2717C51.735 45.7376 51.2998 46.1727 51.2998 46.7096C51.2998 47.2465 51.735 47.6815 52.2717 47.6815Z" fill="url(#paint16_linear_178_508)"/>
<path d="M53.3086 42.498C53.8454 42.498 54.2805 42.063 54.2805 41.5261V39.4526C54.2805 38.9157 53.8454 38.4807 53.3086 38.4807C52.7718 38.4807 52.3367 38.9157 52.3367 39.4526V41.5261C52.3367 42.063 52.7718 42.498 53.3086 42.498Z" fill="url(#paint17_linear_178_508)"/>
</g>
<defs>
<linearGradient id="paint0_linear_178_508" x1="11.3094" y1="14.0594" x2="24.5717" y2="61.3818" gradientUnits="userSpaceOnUse">
<stop offset="0.1" stop-color="#3594AD"/>
<stop offset="0.565" stop-color="#8BB7A0"/>
<stop offset="1" stop-color="#FBE58E"/>
</linearGradient>
<linearGradient id="paint1_linear_178_508" x1="42.0292" y1="27.8685" x2="44.4409" y2="34.095" gradientUnits="userSpaceOnUse">
<stop offset="0.1" stop-color="#3594AD"/>
<stop offset="0.565" stop-color="#8BB7A0"/>
<stop offset="1" stop-color="#FBE58E"/>
</linearGradient>
<linearGradient id="paint2_linear_178_508" x1="8.66759" y1="12.8154" x2="9.00066" y2="15.0512" gradientUnits="userSpaceOnUse">
<stop offset="0.1" stop-color="#3594AD"/>
<stop offset="0.565" stop-color="#8BB7A0"/>
<stop offset="1" stop-color="#FBE58E"/>
</linearGradient>
<linearGradient id="paint3_linear_178_508" x1="15.9244" y1="12.8154" x2="16.2575" y2="15.0512" gradientUnits="userSpaceOnUse">
<stop offset="0.1" stop-color="#3594AD"/>
<stop offset="0.565" stop-color="#8BB7A0"/>
<stop offset="1" stop-color="#FBE58E"/>
</linearGradient>
<linearGradient id="paint4_linear_178_508" x1="23.1815" y1="12.8154" x2="23.5146" y2="15.0512" gradientUnits="userSpaceOnUse">
<stop offset="0.1" stop-color="#3594AD"/>
<stop offset="0.565" stop-color="#8BB7A0"/>
<stop offset="1" stop-color="#FBE58E"/>
</linearGradient>
<linearGradient id="paint5_linear_178_508" x1="30.4386" y1="12.8154" x2="30.7717" y2="15.0512" gradientUnits="userSpaceOnUse">
<stop offset="0.1" stop-color="#3594AD"/>
<stop offset="0.565" stop-color="#8BB7A0"/>
<stop offset="1" stop-color="#FBE58E"/>
</linearGradient>
<linearGradient id="paint6_linear_178_508" x1="37.6957" y1="12.8154" x2="38.0287" y2="15.0512" gradientUnits="userSpaceOnUse">
<stop offset="0.1" stop-color="#3594AD"/>
<stop offset="0.565" stop-color="#8BB7A0"/>
<stop offset="1" stop-color="#FBE58E"/>
</linearGradient>
<linearGradient id="paint7_linear_178_508" x1="44.9525" y1="12.8154" x2="45.2856" y2="15.0512" gradientUnits="userSpaceOnUse">
<stop offset="0.1" stop-color="#3594AD"/>
<stop offset="0.565" stop-color="#8BB7A0"/>
<stop offset="1" stop-color="#FBE58E"/>
</linearGradient>
<linearGradient id="paint8_linear_178_508" x1="51.836" y1="12.9502" x2="53.0163" y2="15.9973" gradientUnits="userSpaceOnUse">
<stop offset="0.1" stop-color="#3594AD"/>
<stop offset="0.565" stop-color="#8BB7A0"/>
<stop offset="1" stop-color="#FBE58E"/>
</linearGradient>
<linearGradient id="paint9_linear_178_508" x1="52.6861" y1="18.2686" x2="54.9904" y2="21.1471" gradientUnits="userSpaceOnUse">
<stop offset="0.1" stop-color="#3594AD"/>
<stop offset="0.565" stop-color="#8BB7A0"/>
<stop offset="1" stop-color="#FBE58E"/>
</linearGradient>
<linearGradient id="paint10_linear_178_508" x1="8.66832" y1="45.9905" x2="9.00139" y2="48.2262" gradientUnits="userSpaceOnUse">
<stop offset="0.1" stop-color="#3594AD"/>
<stop offset="0.565" stop-color="#8BB7A0"/>
<stop offset="1" stop-color="#FBE58E"/>
</linearGradient>
<linearGradient id="paint11_linear_178_508" x1="15.9254" y1="45.9905" x2="16.2585" y2="48.2262" gradientUnits="userSpaceOnUse">
<stop offset="0.1" stop-color="#3594AD"/>
<stop offset="0.565" stop-color="#8BB7A0"/>
<stop offset="1" stop-color="#FBE58E"/>
</linearGradient>
<linearGradient id="paint12_linear_178_508" x1="23.1822" y1="45.9905" x2="23.5153" y2="48.2262" gradientUnits="userSpaceOnUse">
<stop offset="0.1" stop-color="#3594AD"/>
<stop offset="0.565" stop-color="#8BB7A0"/>
<stop offset="1" stop-color="#FBE58E"/>
</linearGradient>
<linearGradient id="paint13_linear_178_508" x1="30.4393" y1="45.9905" x2="30.7724" y2="48.2262" gradientUnits="userSpaceOnUse">
<stop offset="0.1" stop-color="#3594AD"/>
<stop offset="0.565" stop-color="#8BB7A0"/>
<stop offset="1" stop-color="#FBE58E"/>
</linearGradient>
<linearGradient id="paint14_linear_178_508" x1="37.6964" y1="45.9905" x2="38.0295" y2="48.2262" gradientUnits="userSpaceOnUse">
<stop offset="0.1" stop-color="#3594AD"/>
<stop offset="0.565" stop-color="#8BB7A0"/>
<stop offset="1" stop-color="#FBE58E"/>
</linearGradient>
<linearGradient id="paint15_linear_178_508" x1="44.9535" y1="45.9905" x2="45.2865" y2="48.2262" gradientUnits="userSpaceOnUse">
<stop offset="0.1" stop-color="#3594AD"/>
<stop offset="0.565" stop-color="#8BB7A0"/>
<stop offset="1" stop-color="#FBE58E"/>
</linearGradient>
<linearGradient id="paint16_linear_178_508" x1="51.8368" y1="45.0884" x2="53.017" y2="48.1354" gradientUnits="userSpaceOnUse">
<stop offset="0.1" stop-color="#3594AD"/>
<stop offset="0.565" stop-color="#8BB7A0"/>
<stop offset="1" stop-color="#FBE58E"/>
</linearGradient>
<linearGradient id="paint17_linear_178_508" x1="52.6869" y1="39.003" x2="54.9911" y2="41.8815" gradientUnits="userSpaceOnUse">
<stop offset="0.1" stop-color="#3594AD"/>
<stop offset="0.565" stop-color="#8BB7A0"/>
<stop offset="1" stop-color="#FBE58E"/>
</linearGradient>
<clipPath id="clip0_178_508">
<rect width="60" height="60" fill="white" transform="translate(0.5 0.12207)"/>
</clipPath>
</defs>
</svg>
